<?xml version="1.0" encoding="UTF-8" standalone="no"?>
<!DOCTYPE svg PUBLIC "-//W3C//DTD SVG 1.1//EN"
 "http://www.w3.org/Graphics/SVG/1.1/DTD/svg11.dtd">
<!-- Generated by graphviz version 2.30.1 (20130519.1752)
 -->
<!-- Title: G Pages: 1 -->
<svg width="458pt" height="420pt"
 viewBox="0.00 0.00 458.00 420.00" xmlns="http://www.w3.org/2000/svg" xmlns:xlink="http://www.w3.org/1999/xlink">
<g id="graph0" class="graph" transform="scale(1 1) rotate(0) translate(4 416)">
<title>G</title>
<polygon fill="white" stroke="white" points="-4,5 -4,-416 455,-416 455,5 -4,5"/>
<g id="clust1" class="cluster"><title>cluster_global</title>
<path fill="none" stroke="gray" d="M20,-8C20,-8 430,-8 430,-8 436,-8 442,-14 442,-20 442,-20 442,-392 442,-392 442,-398 436,-404 430,-404 430,-404 20,-404 20,-404 14,-404 8,-398 8,-392 8,-392 8,-20 8,-20 8,-14 14,-8 20,-8"/>
<text text-anchor="middle" x="225" y="-391.2" font-family="Times,serif" font-size="11.00" fill="gray">global</text>
</g>
<!-- \\url -->
<g id="node1" class="node"><title>\\url</title>
<g id="a_node1"><a xlink:href="class_url.html" xlink:title="url" target="_parent">
<polygon fill="none" stroke="black" points="243,-376 189,-376 189,-340 243,-340 243,-376"/>
<text text-anchor="middle" x="216" y="-355.2" font-family="Courier,monospace" font-size="11.00">url</text>
</a>
</g>
</g>
<!-- \\dataMonger -->
<g id="node8" class="node"><title>\\dataMonger</title>
<g id="a_node8"><a xlink:href="class_dataMonger.html" xlink:title="«abstract»&lt;br/&gt;dataMonger" target="_parent">
<polygon fill="none" stroke="black" points="101.5,-295 16.5,-295 16.5,-259 101.5,-259 101.5,-295"/>
<text text-anchor="start" x="25" y="-280.7" font-family="Courier,monospace" font-size="11.00">«abstract»</text>
<text text-anchor="start" x="25" y="-269.7" font-family="Courier,monospace" font-size="11.00">dataMonger</text>
</a>
</g>
</g>
<!-- \\url&#45;&gt;\\dataMonger -->
<g id="edge1" class="edge"><title>\\url&#45;&gt;\\dataMonger</title>
<path fill="none" stroke="black" d="M188.706,-344.259C165.427,-332.094 130.989,-314.098 103.593,-299.781"/>
<polygon fill="none" stroke="black" points="105.082,-296.61 94.5981,-295.08 101.84,-302.814 105.082,-296.61"/>
</g>
<!-- \\sanitation -->
<g id="node2" class="node"><title>\\sanitation</title>
<g id="a_node2"><a xlink:href="class_sanitation.html" xlink:title="sanitation" target="_parent">
<polygon fill="none" stroke="black" points="258,-106 174,-106 174,-70 258,-70 258,-106"/>
<text text-anchor="middle" x="216" y="-85.2" font-family="Courier,monospace" font-size="11.00">sanitation</text>
</a>
</g>
</g>
<!-- \\redirect -->
<g id="node3" class="node"><title>\\redirect</title>
<g id="a_node3"><a xlink:href="class_redirect.html" xlink:title="redirect" target="_parent">
<polygon fill="none" stroke="black" points="251.5,-160 180.5,-160 180.5,-124 251.5,-124 251.5,-160"/>
<text text-anchor="middle" x="216" y="-139.2" font-family="Courier,monospace" font-size="11.00">redirect</text>
</a>
</g>
</g>
<!-- \\mappedArticle -->
<g id="node4" class="node"><title>\\mappedArticle</title>
<g id="a_node4"><a xlink:href="class_mappedArticle.html" xlink:title="mappedArticle" target="_parent">
<polygon fill="none" stroke="black" points="434,-376 330,-376 330,-340 434,-340 434,-376"/>
<text text-anchor="middle" x="382" y="-355.2" font-family="Courier,monospace" font-size="11.00">mappedArticle</text>
</a>
</g>
</g>
<!-- \\article -->
<g id="node9" class="node"><title>\\article</title>
<g id="a_node9"><a xlink:href="class_article.html" xlink:title="article" target="_parent">
<polygon fill="none" stroke="black" points="248,-322 184,-322 184,-286 248,-286 248,-322"/>
<text text-anchor="middle" x="216" y="-301.2" font-family="Courier,monospace" font-size="11.00">article</text>
</a>
</g>
</g>
<!-- \\mappedArticle&#45;&gt;\\article -->
<g id="edge2" class="edge"><title>\\mappedArticle&#45;&gt;\\article</title>
<path fill="none" stroke="black" d="M329.559,-341.062C306.424,-333.445 279.502,-324.58 257.789,-317.431"/>
<polygon fill="none" stroke="black" points="258.805,-314.08 248.212,-314.277 256.616,-320.729 258.805,-314.08"/>
</g>
<!-- \\session -->
<g id="node5" class="node"><title>\\session</title>
<g id="a_node5"><a xlink:href="class_session.html" xlink:title="session" target="_parent">
<polygon fill="none" stroke="black" points="248,-268 184,-268 184,-232 248,-232 248,-268"/>
<text text-anchor="middle" x="216" y="-247.2" font-family="Courier,monospace" font-size="11.00">session</text>
</a>
</g>
</g>
<!-- \\session&#45;&gt;\\dataMonger -->
<g id="edge3" class="edge"><title>\\session&#45;&gt;\\dataMonger</title>
<path fill="none" stroke="black" d="M183.633,-255.464C162.967,-259.064 135.419,-263.862 111.573,-268.016"/>
<polygon fill="none" stroke="black" points="110.861,-264.587 101.61,-269.752 112.063,-271.484 110.861,-264.587"/>
</g>
<!-- \\jsonMaker -->
<g id="node6" class="node"><title>\\jsonMaker</title>
<g id="a_node6"><a xlink:href="core_json.html" xlink:title="jsonMaker" target="_parent">
<polygon fill="none" stroke="black" points="420.5,-322 343.5,-322 343.5,-286 420.5,-286 420.5,-322"/>
<text text-anchor="middle" x="382" y="-301.2" font-family="Courier,monospace" font-size="11.00">jsonMaker</text>
</a>
</g>
</g>
<!-- \\feed -->
<g id="node7" class="node"><title>\\feed</title>
<g id="a_node7"><a xlink:href="class_feed.html" xlink:title="feed" target="_parent">
<polygon fill="none" stroke="black" points="243,-214 189,-214 189,-178 243,-178 243,-214"/>
<text text-anchor="middle" x="216" y="-193.2" font-family="Courier,monospace" font-size="11.00">feed</text>
</a>
</g>
</g>
<!-- \\feed&#45;&gt;\\dataMonger -->
<g id="edge4" class="edge"><title>\\feed&#45;&gt;\\dataMonger</title>
<path fill="none" stroke="black" d="M188.706,-209.741C165.427,-221.906 130.989,-239.902 103.593,-254.219"/>
<polygon fill="none" stroke="black" points="101.84,-251.186 94.5981,-258.92 105.082,-257.39 101.84,-251.186"/>
</g>
<!-- \\article&#45;&gt;\\dataMonger -->
<g id="edge5" class="edge"><title>\\article&#45;&gt;\\dataMonger</title>
<path fill="none" stroke="black" d="M183.633,-298.536C162.967,-294.936 135.419,-290.138 111.573,-285.984"/>
<polygon fill="none" stroke="black" points="112.063,-282.516 101.61,-284.248 110.861,-289.413 112.063,-282.516"/>
</g>
<!-- \\inventory -->
<g id="node10" class="node"><title>\\inventory</title>
<g id="a_node10"><a xlink:href="class_inventory.html" xlink:title="inventory" target="_parent">
<polygon fill="none" stroke="black" points="420.5,-268 343.5,-268 343.5,-232 420.5,-232 420.5,-268"/>
<text text-anchor="middle" x="382" y="-247.2" font-family="Courier,monospace" font-size="11.00">inventory</text>
</a>
</g>
</g>
<!-- \\condRedirect -->
<g id="node11" class="node"><title>\\condRedirect</title>
<g id="a_node11"><a xlink:href="class_condRedirect.html" xlink:title="condRedirect" target="_parent">
<polygon fill="none" stroke="black" points="431,-214 333,-214 333,-178 431,-178 431,-214"/>
<text text-anchor="middle" x="382" y="-193.2" font-family="Courier,monospace" font-size="11.00">condRedirect</text>
</a>
</g>
</g>
<!-- \\condRedirect&#45;&gt;\\redirect -->
<g id="edge6" class="edge"><title>\\condRedirect&#45;&gt;\\redirect</title>
<path fill="none" stroke="black" d="M332.682,-180.09C310.149,-172.671 283.51,-163.9 261.478,-156.645"/>
<polygon fill="none" stroke="black" points="262.304,-153.232 251.711,-153.429 260.115,-159.881 262.304,-153.232"/>
</g>
<!-- \\varGetter -->
<g id="node12" class="node"><title>\\varGetter</title>
<g id="a_node12"><a xlink:href="class_varGetter.html" xlink:title="varGetter" target="_parent">
<polygon fill="none" stroke="black" points="420.5,-160 343.5,-160 343.5,-124 420.5,-124 420.5,-160"/>
<text text-anchor="middle" x="382" y="-139.2" font-family="Courier,monospace" font-size="11.00">varGetter</text>
</a>
</g>
</g>
<!-- \\varGetter&#45;&gt;\\sanitation -->
<g id="edge7" class="edge"><title>\\varGetter&#45;&gt;\\sanitation</title>
<path fill="none" stroke="black" d="M343.375,-129.611C321.017,-122.249 292.36,-112.814 267.99,-104.789"/>
<polygon fill="none" stroke="black" points="268.781,-101.365 258.188,-101.562 266.592,-108.014 268.781,-101.365"/>
</g>
<!-- \\urlset -->
<g id="node13" class="node"><title>\\urlset</title>
<g id="a_node13"><a xlink:href="class_urlset.html" xlink:title="urlset" target="_parent">
<polygon fill="none" stroke="black" points="410.5,-106 353.5,-106 353.5,-70 410.5,-70 410.5,-106"/>
<text text-anchor="middle" x="382" y="-85.2" font-family="Courier,monospace" font-size="11.00">urlset</text>
</a>
</g>
</g>
<!-- \\config -->
<g id="node14" class="node"><title>\\config</title>
<g id="a_node14"><a xlink:href="class_config.html" xlink:title="config" target="_parent">
<polygon fill="none" stroke="black" points="410.5,-52 353.5,-52 353.5,-16 410.5,-16 410.5,-52"/>
<text text-anchor="middle" x="382" y="-31.2" font-family="Courier,monospace" font-size="11.00">config</text>
</a>
</g>
</g>
</g>
</svg>
