<?xml version="1.0" encoding="UTF-8" standalone="no"?>
<!DOCTYPE svg PUBLIC "-//W3C//DTD SVG 1.1//EN"
 "http://www.w3.org/Graphics/SVG/1.1/DTD/svg11.dtd">
<!-- Generated by graphviz version 2.30.1 (20130603.0921)
 -->
<!-- Title: G Pages: 1 -->
<svg width="472pt" height="528pt"
 viewBox="0.00 0.00 472.00 528.00" xmlns="http://www.w3.org/2000/svg" xmlns:xlink="http://www.w3.org/1999/xlink">
<g id="graph0" class="graph" transform="scale(1 1) rotate(0) translate(4 524)">
<title>G</title>
<polygon fill="white" stroke="white" points="-4,5 -4,-524 469,-524 469,5 -4,5"/>
<g id="clust1" class="cluster"><title>cluster_Global</title>
<path fill="none" stroke="gray" d="M20,-8C20,-8 444,-8 444,-8 450,-8 456,-14 456,-20 456,-20 456,-500 456,-500 456,-506 450,-512 444,-512 444,-512 20,-512 20,-512 14,-512 8,-506 8,-500 8,-500 8,-20 8,-20 8,-14 14,-8 20,-8"/>
<text text-anchor="middle" x="232" y="-499.2" font-family="Times,serif" font-size="11.00" fill="gray">\</text>
</g>
<!-- \\condRedirect -->
<g id="node1" class="node"><title>\\condRedirect</title>
<polygon fill="none" stroke="black" points="438,-484 340,-484 340,-448 438,-448 438,-484"/>
<text text-anchor="middle" x="389" y="-463.2" font-family="Courier,monospace" font-size="11.00">condRedirect</text>
</g>
<!-- \\redirect -->
<g id="node7" class="node"><title>\\redirect</title>
<polygon fill="none" stroke="black" points="251.5,-484 180.5,-484 180.5,-448 251.5,-448 251.5,-484"/>
<text text-anchor="middle" x="216" y="-463.2" font-family="Courier,monospace" font-size="11.00">redirect</text>
</g>
<!-- \\condRedirect&#45;&gt;\\redirect -->
<g id="edge1" class="edge"><title>\\condRedirect&#45;&gt;\\redirect</title>
<path fill="none" stroke="black" d="M339.912,-466C315.474,-466 285.956,-466 261.973,-466"/>
<polygon fill="none" stroke="black" points="261.724,-462.5 251.724,-466 261.723,-469.5 261.724,-462.5"/>
</g>
<!-- \\sanitation -->
<g id="node2" class="node"><title>\\sanitation</title>
<polygon fill="none" stroke="black" points="258,-214 174,-214 174,-178 258,-178 258,-214"/>
<text text-anchor="middle" x="216" y="-193.2" font-family="Courier,monospace" font-size="11.00">sanitation</text>
</g>
<!-- \\stdClassArticle -->
<g id="node3" class="node"><title>\\stdClassArticle</title>
<polygon fill="none" stroke="black" points="448,-430 330,-430 330,-394 448,-394 448,-430"/>
<text text-anchor="middle" x="389" y="-409.2" font-family="Courier,monospace" font-size="11.00">stdClassArticle</text>
</g>
<!-- \\article -->
<g id="node10" class="node"><title>\\article</title>
<polygon fill="none" stroke="black" points="248,-376 184,-376 184,-340 248,-340 248,-376"/>
<text text-anchor="middle" x="216" y="-355.2" font-family="Courier,monospace" font-size="11.00">article</text>
</g>
<!-- \\stdClassArticle&#45;&gt;\\article -->
<g id="edge2" class="edge"><title>\\stdClassArticle&#45;&gt;\\article</title>
<path fill="none" stroke="black" d="M330.584,-393.869C306.688,-386.323 279.5,-377.737 257.716,-370.858"/>
<polygon fill="none" stroke="black" points="258.708,-367.501 248.119,-367.827 256.601,-374.176 258.708,-367.501"/>
</g>
<!-- \\mappedArticle -->
<g id="node4" class="node"><title>\\mappedArticle</title>
<polygon fill="none" stroke="black" points="441,-376 337,-376 337,-340 441,-340 441,-376"/>
<text text-anchor="middle" x="389" y="-355.2" font-family="Courier,monospace" font-size="11.00">mappedArticle</text>
</g>
<!-- \\mappedArticle&#45;&gt;\\article -->
<g id="edge3" class="edge"><title>\\mappedArticle&#45;&gt;\\article</title>
<path fill="none" stroke="black" d="M336.694,-358C311.586,-358 281.766,-358 258.172,-358"/>
<polygon fill="none" stroke="black" points="258.142,-354.5 248.142,-358 258.142,-361.5 258.142,-354.5"/>
</g>
<!-- \\jsonMaker -->
<g id="node5" class="node"><title>\\jsonMaker</title>
<polygon fill="none" stroke="black" points="427.5,-322 350.5,-322 350.5,-286 427.5,-286 427.5,-322"/>
<text text-anchor="middle" x="389" y="-301.2" font-family="Courier,monospace" font-size="11.00">jsonMaker</text>
</g>
<!-- \\session -->
<g id="node6" class="node"><title>\\session</title>
<polygon fill="none" stroke="black" points="248,-322 184,-322 184,-286 248,-286 248,-322"/>
<text text-anchor="middle" x="216" y="-301.2" font-family="Courier,monospace" font-size="11.00">session</text>
</g>
<!-- \\dataMonger -->
<g id="node16" class="node"><title>\\dataMonger</title>
<polygon fill="none" stroke="black" points="101.5,-295 16.5,-295 16.5,-259 101.5,-259 101.5,-295"/>
<text text-anchor="start" x="25" y="-280.7" font-family="Courier,monospace" font-size="11.00">«abstract»</text>
<text text-anchor="start" x="25" y="-269.7" font-family="Courier,monospace" font-size="11.00">dataMonger</text>
</g>
<!-- \\session&#45;&gt;\\dataMonger -->
<g id="edge4" class="edge"><title>\\session&#45;&gt;\\dataMonger</title>
<path fill="none" stroke="black" d="M183.633,-298.536C162.967,-294.936 135.419,-290.138 111.573,-285.984"/>
<polygon fill="none" stroke="black" points="112.063,-282.516 101.61,-284.248 110.861,-289.413 112.063,-282.516"/>
</g>
<!-- \\config -->
<g id="node8" class="node"><title>\\config</title>
<polygon fill="none" stroke="black" points="417.5,-268 360.5,-268 360.5,-232 417.5,-232 417.5,-268"/>
<text text-anchor="middle" x="389" y="-247.2" font-family="Courier,monospace" font-size="11.00">config</text>
</g>
<!-- \\feed -->
<g id="node9" class="node"><title>\\feed</title>
<polygon fill="none" stroke="black" points="243,-268 189,-268 189,-232 243,-232 243,-268"/>
<text text-anchor="middle" x="216" y="-247.2" font-family="Courier,monospace" font-size="11.00">feed</text>
</g>
<!-- \\feed&#45;&gt;\\dataMonger -->
<g id="edge5" class="edge"><title>\\feed&#45;&gt;\\dataMonger</title>
<path fill="none" stroke="black" d="M188.706,-254.58C167.661,-258.246 137.498,-263.5 111.662,-268.001"/>
<polygon fill="none" stroke="black" points="110.884,-264.584 101.633,-269.748 112.085,-271.48 110.884,-264.584"/>
</g>
<!-- \\article&#45;&gt;\\dataMonger -->
<g id="edge6" class="edge"><title>\\article&#45;&gt;\\dataMonger</title>
<path fill="none" stroke="black" d="M183.633,-341.608C160.628,-329.586 129.096,-313.108 103.635,-299.803"/>
<polygon fill="none" stroke="black" points="105.04,-296.588 94.556,-295.058 101.798,-302.792 105.04,-296.588"/>
</g>
<!-- \\varGetter -->
<g id="node11" class="node"><title>\\varGetter</title>
<polygon fill="none" stroke="black" points="427.5,-214 350.5,-214 350.5,-178 427.5,-178 427.5,-214"/>
<text text-anchor="middle" x="389" y="-193.2" font-family="Courier,monospace" font-size="11.00">varGetter</text>
</g>
<!-- \\varGetter&#45;&gt;\\sanitation -->
<g id="edge7" class="edge"><title>\\varGetter&#45;&gt;\\sanitation</title>
<path fill="none" stroke="black" d="M350.473,-196C326.345,-196 294.68,-196 268.248,-196"/>
<polygon fill="none" stroke="black" points="268.028,-192.5 258.028,-196 268.028,-199.5 268.028,-192.5"/>
</g>
<!-- \\lock -->
<g id="node12" class="node"><title>\\lock</title>
<polygon fill="none" stroke="black" points="416,-160 362,-160 362,-124 416,-124 416,-160"/>
<text text-anchor="middle" x="389" y="-139.2" font-family="Courier,monospace" font-size="11.00">lock</text>
</g>
<!-- \\inventory -->
<g id="node13" class="node"><title>\\inventory</title>
<polygon fill="none" stroke="black" points="427.5,-106 350.5,-106 350.5,-70 427.5,-70 427.5,-106"/>
<text text-anchor="middle" x="389" y="-85.2" font-family="Courier,monospace" font-size="11.00">inventory</text>
</g>
<!-- \\url -->
<g id="node14" class="node"><title>\\url</title>
<polygon fill="none" stroke="black" points="243,-160 189,-160 189,-124 243,-124 243,-160"/>
<text text-anchor="middle" x="216" y="-139.2" font-family="Courier,monospace" font-size="11.00">url</text>
</g>
<!-- \\url&#45;&gt;\\dataMonger -->
<g id="edge8" class="edge"><title>\\url&#45;&gt;\\dataMonger</title>
<path fill="none" stroke="black" d="M188.924,-158.178C183.859,-161.595 178.675,-165.293 174,-169 141.179,-195.022 106.694,-228.708 84.3631,-251.486"/>
<polygon fill="none" stroke="black" points="81.7435,-249.16 77.2758,-258.767 86.7592,-254.043 81.7435,-249.16"/>
</g>
<!-- \\urlset -->
<g id="node15" class="node"><title>\\urlset</title>
<polygon fill="none" stroke="black" points="417.5,-52 360.5,-52 360.5,-16 417.5,-16 417.5,-52"/>
<text text-anchor="middle" x="389" y="-31.2" font-family="Courier,monospace" font-size="11.00">urlset</text>
</g>
</g>
</svg>
