<?xml version="1.0" encoding="UTF-8" standalone="no"?>
<!DOCTYPE svg PUBLIC "-//W3C//DTD SVG 1.1//EN"
 "http://www.w3.org/Graphics/SVG/1.1/DTD/svg11.dtd">
<!-- Generated by graphviz version 2.30.1 (20130519.1752)
 -->
<!-- Title: G Pages: 1 -->
<svg width="458pt" height="528pt"
 viewBox="0.00 0.00 458.00 528.00" xmlns="http://www.w3.org/2000/svg" xmlns:xlink="http://www.w3.org/1999/xlink">
<g id="graph0" class="graph" transform="scale(1 1) rotate(0) translate(4 524)">
<title>G</title>
<polygon fill="white" stroke="white" points="-4,5 -4,-524 455,-524 455,5 -4,5"/>
<g id="clust1" class="cluster"><title>cluster_global</title>
<path fill="none" stroke="gray" d="M20,-8C20,-8 430,-8 430,-8 436,-8 442,-14 442,-20 442,-20 442,-500 442,-500 442,-506 436,-512 430,-512 430,-512 20,-512 20,-512 14,-512 8,-506 8,-500 8,-500 8,-20 8,-20 8,-14 14,-8 20,-8"/>
<text text-anchor="middle" x="225" y="-499.2" font-family="Times,serif" font-size="11.00" fill="gray">global</text>
</g>
<!-- \\url -->
<g id="node1" class="node"><title>\\url</title>
<g id="a_node1"><a xlink:href="class_url.html" xlink:title="url" target="_parent">
<polygon fill="none" stroke="black" points="243,-484 189,-484 189,-448 243,-448 243,-484"/>
<text text-anchor="middle" x="216" y="-463.2" font-family="Courier,monospace" font-size="11.00">url</text>
</a>
</g>
</g>
<!-- \\dataMonger -->
<g id="node9" class="node"><title>\\dataMonger</title>
<g id="a_node9"><a xlink:href="class_dataMonger.html" xlink:title="«abstract»&lt;br/&gt;dataMonger" target="_parent">
<polygon fill="none" stroke="black" points="101.5,-403 16.5,-403 16.5,-367 101.5,-367 101.5,-403"/>
<text text-anchor="start" x="25" y="-388.7" font-family="Courier,monospace" font-size="11.00">«abstract»</text>
<text text-anchor="start" x="25" y="-377.7" font-family="Courier,monospace" font-size="11.00">dataMonger</text>
</a>
</g>
</g>
<!-- \\url&#45;&gt;\\dataMonger -->
<g id="edge1" class="edge"><title>\\url&#45;&gt;\\dataMonger</title>
<path fill="none" stroke="black" d="M188.706,-452.259C165.427,-440.094 130.989,-422.098 103.593,-407.781"/>
<polygon fill="none" stroke="black" points="105.082,-404.61 94.5981,-403.08 101.84,-410.814 105.082,-404.61"/>
</g>
<!-- \\sanitation -->
<g id="node2" class="node"><title>\\sanitation</title>
<g id="a_node2"><a xlink:href="class_sanitation.html" xlink:title="sanitation" target="_parent">
<polygon fill="none" stroke="black" points="258,-214 174,-214 174,-178 258,-178 258,-214"/>
<text text-anchor="middle" x="216" y="-193.2" font-family="Courier,monospace" font-size="11.00">sanitation</text>
</a>
</g>
</g>
<!-- \\redirect -->
<g id="node3" class="node"><title>\\redirect</title>
<g id="a_node3"><a xlink:href="class_redirect.html" xlink:title="redirect" target="_parent">
<polygon fill="none" stroke="black" points="251.5,-268 180.5,-268 180.5,-232 251.5,-232 251.5,-268"/>
<text text-anchor="middle" x="216" y="-247.2" font-family="Courier,monospace" font-size="11.00">redirect</text>
</a>
</g>
</g>
<!-- \\mappedArticle -->
<g id="node4" class="node"><title>\\mappedArticle</title>
<g id="a_node4"><a xlink:href="class_mappedArticle.html" xlink:title="mappedArticle" target="_parent">
<polygon fill="none" stroke="black" points="434,-484 330,-484 330,-448 434,-448 434,-484"/>
<text text-anchor="middle" x="382" y="-463.2" font-family="Courier,monospace" font-size="11.00">mappedArticle</text>
</a>
</g>
</g>
<!-- \\article -->
<g id="node10" class="node"><title>\\article</title>
<g id="a_node10"><a xlink:href="class_article.html" xlink:title="article" target="_parent">
<polygon fill="none" stroke="black" points="248,-430 184,-430 184,-394 248,-394 248,-430"/>
<text text-anchor="middle" x="216" y="-409.2" font-family="Courier,monospace" font-size="11.00">article</text>
</a>
</g>
</g>
<!-- \\mappedArticle&#45;&gt;\\article -->
<g id="edge2" class="edge"><title>\\mappedArticle&#45;&gt;\\article</title>
<path fill="none" stroke="black" d="M329.559,-449.062C306.424,-441.445 279.502,-432.58 257.789,-425.431"/>
<polygon fill="none" stroke="black" points="258.805,-422.08 248.212,-422.277 256.616,-428.729 258.805,-422.08"/>
</g>
<!-- \\session -->
<g id="node5" class="node"><title>\\session</title>
<g id="a_node5"><a xlink:href="class_session.html" xlink:title="session" target="_parent">
<polygon fill="none" stroke="black" points="248,-376 184,-376 184,-340 248,-340 248,-376"/>
<text text-anchor="middle" x="216" y="-355.2" font-family="Courier,monospace" font-size="11.00">session</text>
</a>
</g>
</g>
<!-- \\session&#45;&gt;\\dataMonger -->
<g id="edge3" class="edge"><title>\\session&#45;&gt;\\dataMonger</title>
<path fill="none" stroke="black" d="M183.633,-363.464C162.967,-367.064 135.419,-371.862 111.573,-376.016"/>
<polygon fill="none" stroke="black" points="110.861,-372.587 101.61,-377.752 112.063,-379.484 110.861,-372.587"/>
</g>
<!-- \\jsonMaker -->
<g id="node6" class="node"><title>\\jsonMaker</title>
<g id="a_node6"><a xlink:href="core_json.html" xlink:title="jsonMaker" target="_parent">
<polygon fill="none" stroke="black" points="420.5,-430 343.5,-430 343.5,-394 420.5,-394 420.5,-430"/>
<text text-anchor="middle" x="382" y="-409.2" font-family="Courier,monospace" font-size="11.00">jsonMaker</text>
</a>
</g>
</g>
<!-- \\feed -->
<g id="node7" class="node"><title>\\feed</title>
<g id="a_node7"><a xlink:href="class_feed.html" xlink:title="feed" target="_parent">
<polygon fill="none" stroke="black" points="243,-322 189,-322 189,-286 243,-286 243,-322"/>
<text text-anchor="middle" x="216" y="-301.2" font-family="Courier,monospace" font-size="11.00">feed</text>
</a>
</g>
</g>
<!-- \\feed&#45;&gt;\\dataMonger -->
<g id="edge4" class="edge"><title>\\feed&#45;&gt;\\dataMonger</title>
<path fill="none" stroke="black" d="M188.706,-317.741C165.427,-329.906 130.989,-347.902 103.593,-362.219"/>
<polygon fill="none" stroke="black" points="101.84,-359.186 94.5981,-366.92 105.082,-365.39 101.84,-359.186"/>
</g>
<!-- \\blogdef -->
<g id="node8" class="node"><title>\\blogdef</title>
<g id="a_node8"><a xlink:href="webadmin.templates.newblog.class_blogdef.html" xlink:title="blogdef" target="_parent">
<polygon fill="none" stroke="black" points="414,-376 350,-376 350,-340 414,-340 414,-376"/>
<text text-anchor="middle" x="382" y="-355.2" font-family="Courier,monospace" font-size="11.00">blogdef</text>
</a>
</g>
</g>
<!-- \\article&#45;&gt;\\dataMonger -->
<g id="edge5" class="edge"><title>\\article&#45;&gt;\\dataMonger</title>
<path fill="none" stroke="black" d="M183.633,-406.536C162.967,-402.936 135.419,-398.138 111.573,-393.984"/>
<polygon fill="none" stroke="black" points="112.063,-390.516 101.61,-392.248 110.861,-397.413 112.063,-390.516"/>
</g>
<!-- \\inventory -->
<g id="node11" class="node"><title>\\inventory</title>
<g id="a_node11"><a xlink:href="class_inventory.html" xlink:title="inventory" target="_parent">
<polygon fill="none" stroke="black" points="420.5,-322 343.5,-322 343.5,-286 420.5,-286 420.5,-322"/>
<text text-anchor="middle" x="382" y="-301.2" font-family="Courier,monospace" font-size="11.00">inventory</text>
</a>
</g>
</g>
<!-- \\condRedirect -->
<g id="node12" class="node"><title>\\condRedirect</title>
<g id="a_node12"><a xlink:href="class_condRedirect.html" xlink:title="condRedirect" target="_parent">
<polygon fill="none" stroke="black" points="431,-268 333,-268 333,-232 431,-232 431,-268"/>
<text text-anchor="middle" x="382" y="-247.2" font-family="Courier,monospace" font-size="11.00">condRedirect</text>
</a>
</g>
</g>
<!-- \\condRedirect&#45;&gt;\\redirect -->
<g id="edge6" class="edge"><title>\\condRedirect&#45;&gt;\\redirect</title>
<path fill="none" stroke="black" d="M332.682,-250C310.251,-250 283.75,-250 261.776,-250"/>
<polygon fill="none" stroke="black" points="261.711,-246.5 251.711,-250 261.711,-253.5 261.711,-246.5"/>
</g>
<!-- \\varGetter -->
<g id="node13" class="node"><title>\\varGetter</title>
<g id="a_node13"><a xlink:href="class_varGetter.html" xlink:title="varGetter" target="_parent">
<polygon fill="none" stroke="black" points="420.5,-214 343.5,-214 343.5,-178 420.5,-178 420.5,-214"/>
<text text-anchor="middle" x="382" y="-193.2" font-family="Courier,monospace" font-size="11.00">varGetter</text>
</a>
</g>
</g>
<!-- \\varGetter&#45;&gt;\\sanitation -->
<g id="edge7" class="edge"><title>\\varGetter&#45;&gt;\\sanitation</title>
<path fill="none" stroke="black" d="M343.375,-196C321.116,-196 292.615,-196 268.315,-196"/>
<polygon fill="none" stroke="black" points="268.188,-192.5 258.188,-196 268.188,-199.5 268.188,-192.5"/>
</g>
<!-- \\urlset -->
<g id="node14" class="node"><title>\\urlset</title>
<g id="a_node14"><a xlink:href="class_urlset.html" xlink:title="urlset" target="_parent">
<polygon fill="none" stroke="black" points="410.5,-160 353.5,-160 353.5,-124 410.5,-124 410.5,-160"/>
<text text-anchor="middle" x="382" y="-139.2" font-family="Courier,monospace" font-size="11.00">urlset</text>
</a>
</g>
</g>
<!-- \\lock -->
<g id="node15" class="node"><title>\\lock</title>
<g id="a_node15"><a xlink:href="class_lock.html" xlink:title="lock" target="_parent">
<polygon fill="none" stroke="black" points="409,-106 355,-106 355,-70 409,-70 409,-106"/>
<text text-anchor="middle" x="382" y="-85.2" font-family="Courier,monospace" font-size="11.00">lock</text>
</a>
</g>
</g>
<!-- \\config -->
<g id="node16" class="node"><title>\\config</title>
<g id="a_node16"><a xlink:href="class_config.html" xlink:title="config" target="_parent">
<polygon fill="none" stroke="black" points="410.5,-52 353.5,-52 353.5,-16 410.5,-16 410.5,-52"/>
<text text-anchor="middle" x="382" y="-31.2" font-family="Courier,monospace" font-size="11.00">config</text>
</a>
</g>
</g>
</g>
</svg>
