<?xml version="1.0" encoding="UTF-8" standalone="no"?>
<!DOCTYPE svg PUBLIC "-//W3C//DTD SVG 1.1//EN"
 "http://www.w3.org/Graphics/SVG/1.1/DTD/svg11.dtd">
<!-- Generated by graphviz version 2.30.1 (20130427.1945)
 -->
<!-- Title: G Pages: 1 -->
<svg width="296pt" height="582pt"
 viewBox="0.00 0.00 296.00 582.00" xmlns="http://www.w3.org/2000/svg" xmlns:xlink="http://www.w3.org/1999/xlink">
<g id="graph0" class="graph" transform="scale(1 1) rotate(0) translate(4 578)">
<title>G</title>
<polygon fill="white" stroke="white" points="-4,5 -4,-578 293,-578 293,5 -4,5"/>
<g id="clust1" class="cluster"><title>cluster_global</title>
<path fill="none" stroke="gray" d="M20,-8C20,-8 268,-8 268,-8 274,-8 280,-14 280,-20 280,-20 280,-554 280,-554 280,-560 274,-566 268,-566 268,-566 20,-566 20,-566 14,-566 8,-560 8,-554 8,-554 8,-20 8,-20 8,-14 14,-8 20,-8"/>
<text text-anchor="middle" x="144" y="-553.2" font-family="Times,serif" font-size="11.00" fill="gray">global</text>
</g>
<!-- \\url -->
<g id="node1" class="node"><title>\\url</title>
<g id="a_node1"><a xlink:href="class_url.html" xlink:title="url" target="_parent">
<polygon fill="none" stroke="black" points="250,-538 196,-538 196,-502 250,-502 250,-538"/>
<text text-anchor="middle" x="223" y="-517.2" font-family="Courier,monospace" font-size="11.00">url</text>
</a>
</g>
</g>
<!-- \\dataMonger -->
<g id="node7" class="node"><title>\\dataMonger</title>
<g id="a_node7"><a xlink:href="class_dataMonger.html" xlink:title="«abstract»&lt;br/&gt;dataMonger" target="_parent">
<polygon fill="none" stroke="black" points="101.5,-430 16.5,-430 16.5,-394 101.5,-394 101.5,-430"/>
<text text-anchor="start" x="25" y="-415.7" font-family="Courier,monospace" font-size="11.00">«abstract»</text>
<text text-anchor="start" x="25" y="-404.7" font-family="Courier,monospace" font-size="11.00">dataMonger</text>
</a>
</g>
</g>
<!-- \\url&#45;&gt;\\dataMonger -->
<g id="edge1" class="edge"><title>\\url&#45;&gt;\\dataMonger</title>
<path fill="none" stroke="black" d="M195.798,-505.919C188.64,-501.895 180.944,-497.403 174,-493 145.636,-475.016 114.64,-452.818 92.1377,-436.21"/>
<polygon fill="none" stroke="black" points="94.0695,-433.285 83.9525,-430.139 89.8994,-438.907 94.0695,-433.285"/>
</g>
<!-- \\sanitation -->
<g id="node2" class="node"><title>\\sanitation</title>
<g id="a_node2"><a xlink:href="class_sanitation.html" xlink:title="sanitation" target="_parent">
<polygon fill="none" stroke="black" points="101,-160 17,-160 17,-124 101,-124 101,-160"/>
<text text-anchor="middle" x="59" y="-139.2" font-family="Courier,monospace" font-size="11.00">sanitation</text>
</a>
</g>
</g>
<!-- \\redirect -->
<g id="node3" class="node"><title>\\redirect</title>
<g id="a_node3"><a xlink:href="class_redirect.html" xlink:title="redirect" target="_parent">
<polygon fill="none" stroke="black" points="94.5,-214 23.5,-214 23.5,-178 94.5,-178 94.5,-214"/>
<text text-anchor="middle" x="59" y="-193.2" font-family="Courier,monospace" font-size="11.00">redirect</text>
</a>
</g>
</g>
<!-- \\session -->
<g id="node4" class="node"><title>\\session</title>
<g id="a_node4"><a xlink:href="class_session.html" xlink:title="session" target="_parent">
<polygon fill="none" stroke="black" points="255,-484 191,-484 191,-448 255,-448 255,-484"/>
<text text-anchor="middle" x="223" y="-463.2" font-family="Courier,monospace" font-size="11.00">session</text>
</a>
</g>
</g>
<!-- \\session&#45;&gt;\\dataMonger -->
<g id="edge2" class="edge"><title>\\session&#45;&gt;\\dataMonger</title>
<path fill="none" stroke="black" d="M190.765,-455.588C168.263,-448.088 137.395,-437.798 111.301,-429.1"/>
<polygon fill="none" stroke="black" points="112.155,-425.696 101.561,-425.854 109.941,-432.336 112.155,-425.696"/>
</g>
<!-- \\jsonMaker -->
<g id="node5" class="node"><title>\\jsonMaker</title>
<g id="a_node5"><a xlink:href="core_json.html" xlink:title="jsonMaker" target="_parent">
<polygon fill="none" stroke="black" points="261.5,-430 184.5,-430 184.5,-394 261.5,-394 261.5,-430"/>
<text text-anchor="middle" x="223" y="-409.2" font-family="Courier,monospace" font-size="11.00">jsonMaker</text>
</a>
</g>
</g>
<!-- \\feed -->
<g id="node6" class="node"><title>\\feed</title>
<g id="a_node6"><a xlink:href="class_feed.html" xlink:title="feed" target="_parent">
<polygon fill="none" stroke="black" points="250,-376 196,-376 196,-340 250,-340 250,-376"/>
<text text-anchor="middle" x="223" y="-355.2" font-family="Courier,monospace" font-size="11.00">feed</text>
</a>
</g>
</g>
<!-- \\feed&#45;&gt;\\dataMonger -->
<g id="edge3" class="edge"><title>\\feed&#45;&gt;\\dataMonger</title>
<path fill="none" stroke="black" d="M195.972,-366.676C173.25,-374.25 139.6,-385.467 111.461,-394.846"/>
<polygon fill="none" stroke="black" points="110.145,-391.596 101.765,-398.078 112.359,-398.236 110.145,-391.596"/>
</g>
<!-- \\article -->
<g id="node8" class="node"><title>\\article</title>
<g id="a_node8"><a xlink:href="class_article.html" xlink:title="article" target="_parent">
<polygon fill="none" stroke="black" points="255,-322 191,-322 191,-286 255,-286 255,-322"/>
<text text-anchor="middle" x="223" y="-301.2" font-family="Courier,monospace" font-size="11.00">article</text>
</a>
</g>
</g>
<!-- \\article&#45;&gt;\\dataMonger -->
<g id="edge4" class="edge"><title>\\article&#45;&gt;\\dataMonger</title>
<path fill="none" stroke="black" d="M190.989,-320.811C185.276,-324.086 179.41,-327.57 174,-331 145.636,-348.984 114.64,-371.182 92.1377,-387.79"/>
<polygon fill="none" stroke="black" points="89.8994,-385.093 83.9525,-393.861 94.0695,-390.715 89.8994,-385.093"/>
</g>
<!-- \\inventory -->
<g id="node9" class="node"><title>\\inventory</title>
<g id="a_node9"><a xlink:href="class_inventory.html" xlink:title="inventory" target="_parent">
<polygon fill="none" stroke="black" points="261.5,-268 184.5,-268 184.5,-232 261.5,-232 261.5,-268"/>
<text text-anchor="middle" x="223" y="-247.2" font-family="Courier,monospace" font-size="11.00">inventory</text>
</a>
</g>
</g>
<!-- \\condRedirect -->
<g id="node10" class="node"><title>\\condRedirect</title>
<g id="a_node10"><a xlink:href="class_condRedirect.html" xlink:title="condRedirect" target="_parent">
<polygon fill="none" stroke="black" points="272,-214 174,-214 174,-178 272,-178 272,-214"/>
<text text-anchor="middle" x="223" y="-193.2" font-family="Courier,monospace" font-size="11.00">condRedirect</text>
</a>
</g>
</g>
<!-- \\condRedirect&#45;&gt;\\redirect -->
<g id="edge5" class="edge"><title>\\condRedirect&#45;&gt;\\redirect</title>
<path fill="none" stroke="black" d="M173.833,-196C151.952,-196 126.222,-196 104.765,-196"/>
<polygon fill="none" stroke="black" points="104.611,-192.5 94.611,-196 104.611,-199.5 104.611,-192.5"/>
</g>
<!-- \\varGetter -->
<g id="node11" class="node"><title>\\varGetter</title>
<g id="a_node11"><a xlink:href="class_varGetter.html" xlink:title="varGetter" target="_parent">
<polygon fill="none" stroke="black" points="261.5,-160 184.5,-160 184.5,-124 261.5,-124 261.5,-160"/>
<text text-anchor="middle" x="223" y="-139.2" font-family="Courier,monospace" font-size="11.00">varGetter</text>
</a>
</g>
</g>
<!-- \\varGetter&#45;&gt;\\sanitation -->
<g id="edge6" class="edge"><title>\\varGetter&#45;&gt;\\sanitation</title>
<path fill="none" stroke="black" d="M184.427,-142C162.687,-142 135.023,-142 111.302,-142"/>
<polygon fill="none" stroke="black" points="111.063,-138.5 101.063,-142 111.063,-145.5 111.063,-138.5"/>
</g>
<!-- \\urlset -->
<g id="node12" class="node"><title>\\urlset</title>
<g id="a_node12"><a xlink:href="class_urlset.html" xlink:title="urlset" target="_parent">
<polygon fill="none" stroke="black" points="251.5,-106 194.5,-106 194.5,-70 251.5,-70 251.5,-106"/>
<text text-anchor="middle" x="223" y="-85.2" font-family="Courier,monospace" font-size="11.00">urlset</text>
</a>
</g>
</g>
<!-- \\config -->
<g id="node13" class="node"><title>\\config</title>
<g id="a_node13"><a xlink:href="class_config.html" xlink:title="config" target="_parent">
<polygon fill="none" stroke="black" points="251.5,-52 194.5,-52 194.5,-16 251.5,-16 251.5,-52"/>
<text text-anchor="middle" x="223" y="-31.2" font-family="Courier,monospace" font-size="11.00">config</text>
</a>
</g>
</g>
</g>
</svg>
