<?xml version="1.0" encoding="UTF-8" standalone="no"?>
<!DOCTYPE svg PUBLIC "-//W3C//DTD SVG 1.1//EN"
 "http://www.w3.org/Graphics/SVG/1.1/DTD/svg11.dtd">
<!-- Generated by graphviz version 2.30.1 (20130704.1115)
 -->
<!-- Title: G Pages: 1 -->
<svg width="500pt" height="636pt"
 viewBox="0.00 0.00 500.00 636.00" xmlns="http://www.w3.org/2000/svg" xmlns:xlink="http://www.w3.org/1999/xlink">
<g id="graph0" class="graph" transform="scale(1 1) rotate(0) translate(4 632)">
<title>G</title>
<polygon fill="white" stroke="white" points="-4,5 -4,-632 497,-632 497,5 -4,5"/>
<g id="clust1" class="cluster"><title>cluster_Global</title>
<path fill="none" stroke="gray" d="M20,-8C20,-8 472,-8 472,-8 478,-8 484,-14 484,-20 484,-20 484,-608 484,-608 484,-614 478,-620 472,-620 472,-620 20,-620 20,-620 14,-620 8,-614 8,-608 8,-608 8,-20 8,-20 8,-14 14,-8 20,-8"/>
<text text-anchor="middle" x="246" y="-607.2" font-family="Times,serif" font-size="11.00" fill="gray">\</text>
</g>
<!-- \\condRedirect -->
<g id="node1" class="node"><title>\\condRedirect</title>
<polygon fill="none" stroke="black" points="466,-592 368,-592 368,-556 466,-556 466,-592"/>
<text text-anchor="middle" x="417" y="-571.2" font-family="Courier,monospace" font-size="11.00">condRedirect</text>
</g>
<!-- \\redirect -->
<g id="node9" class="node"><title>\\redirect</title>
<polygon fill="none" stroke="black" points="265.5,-592 194.5,-592 194.5,-556 265.5,-556 265.5,-592"/>
<text text-anchor="middle" x="230" y="-571.2" font-family="Courier,monospace" font-size="11.00">redirect</text>
</g>
<!-- \\condRedirect&#45;&gt;\\redirect -->
<g id="edge1" class="edge"><title>\\condRedirect&#45;&gt;\\redirect</title>
<path fill="none" stroke="black" d="M367.876,-574C339.492,-574 303.801,-574 275.982,-574"/>
<polygon fill="none" stroke="black" points="275.737,-570.5 265.737,-574 275.737,-577.5 275.737,-570.5"/>
</g>
<!-- \\sanitation -->
<g id="node2" class="node"><title>\\sanitation</title>
<polygon fill="none" stroke="black" points="272,-322 188,-322 188,-286 272,-286 272,-322"/>
<text text-anchor="middle" x="230" y="-301.2" font-family="Courier,monospace" font-size="11.00">sanitation</text>
</g>
<!-- \\stdClassArticle -->
<g id="node3" class="node"><title>\\stdClassArticle</title>
<polygon fill="none" stroke="black" points="476,-538 358,-538 358,-502 476,-502 476,-538"/>
<text text-anchor="middle" x="417" y="-517.2" font-family="Courier,monospace" font-size="11.00">stdClassArticle</text>
</g>
<!-- \\article -->
<g id="node11" class="node"><title>\\article</title>
<polygon fill="none" stroke="black" points="262,-484 198,-484 198,-448 262,-448 262,-484"/>
<text text-anchor="middle" x="230" y="-463.2" font-family="Courier,monospace" font-size="11.00">article</text>
</g>
<!-- \\stdClassArticle&#45;&gt;\\article -->
<g id="edge2" class="edge"><title>\\stdClassArticle&#45;&gt;\\article</title>
<path fill="none" stroke="black" d="M357.972,-503.062C330.002,-494.898 297.123,-485.301 271.832,-477.919"/>
<polygon fill="none" stroke="black" points="272.771,-474.547 262.191,-475.104 270.809,-481.266 272.771,-474.547"/>
</g>
<!-- \\mappedArticle -->
<g id="node4" class="node"><title>\\mappedArticle</title>
<polygon fill="none" stroke="black" points="469,-484 365,-484 365,-448 469,-448 469,-484"/>
<text text-anchor="middle" x="417" y="-463.2" font-family="Courier,monospace" font-size="11.00">mappedArticle</text>
</g>
<!-- \\mappedArticle&#45;&gt;\\article -->
<g id="edge3" class="edge"><title>\\mappedArticle&#45;&gt;\\article</title>
<path fill="none" stroke="black" d="M364.958,-466C335.749,-466 299.585,-466 272.198,-466"/>
<polygon fill="none" stroke="black" points="272.164,-462.5 262.164,-466 272.164,-469.5 272.164,-462.5"/>
</g>
<!-- \\evenExtension -->
<g id="node5" class="node"><title>\\evenExtension</title>
<polygon fill="none" stroke="black" points="469,-430 365,-430 365,-394 469,-394 469,-430"/>
<text text-anchor="middle" x="417" y="-409.2" font-family="Courier,monospace" font-size="11.00">evenExtension</text>
</g>
<!-- \\Extension -->
<g id="node19" class="node"><title>\\Extension</title>
<polygon fill="none" stroke="black" points="268.5,-430 191.5,-430 191.5,-394 268.5,-394 268.5,-430"/>
<text text-anchor="middle" x="230" y="-409.2" font-family="Courier,monospace" font-size="11.00">Extension</text>
</g>
<!-- \\evenExtension&#45;&gt;\\Extension -->
<g id="edge4" class="edge"><title>\\evenExtension&#45;&gt;\\Extension</title>
<path fill="none" stroke="black" stroke-dasharray="1,5" d="M364.958,-412C338.049,-412 305.238,-412 278.824,-412"/>
<polygon fill="none" stroke="black" points="278.672,-408.5 268.672,-412 278.672,-415.5 278.672,-408.5"/>
</g>
<!-- \\directoryIndex -->
<g id="node6" class="node"><title>\\directoryIndex</title>
<polygon fill="none" stroke="black" points="285.5,-268 174.5,-268 174.5,-232 285.5,-232 285.5,-268"/>
<text text-anchor="middle" x="230" y="-247.2" font-family="Courier,monospace" font-size="11.00">directoryIndex</text>
</g>
<!-- \\jsonMaker -->
<g id="node7" class="node"><title>\\jsonMaker</title>
<polygon fill="none" stroke="black" points="455.5,-376 378.5,-376 378.5,-340 455.5,-340 455.5,-376"/>
<text text-anchor="middle" x="417" y="-355.2" font-family="Courier,monospace" font-size="11.00">jsonMaker</text>
</g>
<!-- \\session -->
<g id="node8" class="node"><title>\\session</title>
<polygon fill="none" stroke="black" points="262,-376 198,-376 198,-340 262,-340 262,-376"/>
<text text-anchor="middle" x="230" y="-355.2" font-family="Courier,monospace" font-size="11.00">session</text>
</g>
<!-- \\dataMonger -->
<g id="node17" class="node"><title>\\dataMonger</title>
<polygon fill="none" stroke="black" points="101.5,-376 16.5,-376 16.5,-340 101.5,-340 101.5,-376"/>
<text text-anchor="start" x="25" y="-361.7" font-family="Courier,monospace" font-size="11.00">«abstract»</text>
<text text-anchor="start" x="25" y="-350.7" font-family="Courier,monospace" font-size="11.00">dataMonger</text>
</g>
<!-- \\session&#45;&gt;\\dataMonger -->
<g id="edge5" class="edge"><title>\\session&#45;&gt;\\dataMonger</title>
<path fill="none" stroke="black" d="M197.608,-358C173.549,-358 139.83,-358 111.792,-358"/>
<polygon fill="none" stroke="black" points="111.747,-354.5 101.747,-358 111.747,-361.5 111.747,-354.5"/>
</g>
<!-- \\feed -->
<g id="node10" class="node"><title>\\feed</title>
<polygon fill="none" stroke="black" points="444,-268 390,-268 390,-232 444,-232 444,-268"/>
<text text-anchor="middle" x="417" y="-247.2" font-family="Courier,monospace" font-size="11.00">feed</text>
</g>
<!-- \\feed&#45;&gt;\\directoryIndex -->
<g id="edge6" class="edge"><title>\\feed&#45;&gt;\\directoryIndex</title>
<path fill="none" stroke="black" d="M389.886,-250C365.531,-250 328.196,-250 295.837,-250"/>
<polygon fill="none" stroke="black" points="295.528,-246.5 285.528,-250 295.528,-253.5 295.528,-246.5"/>
</g>
<!-- \\article&#45;&gt;\\dataMonger -->
<g id="edge7" class="edge"><title>\\article&#45;&gt;\\dataMonger</title>
<path fill="none" stroke="black" d="M197.989,-451.862C190.034,-447.943 181.586,-443.517 174,-439 144.959,-421.708 113.79,-399.269 91.3964,-382.395"/>
<polygon fill="none" stroke="black" points="93.3473,-379.482 83.2662,-376.222 89.1146,-385.057 93.3473,-379.482"/>
</g>
<!-- \\varGetter -->
<g id="node12" class="node"><title>\\varGetter</title>
<polygon fill="none" stroke="black" points="455.5,-322 378.5,-322 378.5,-286 455.5,-286 455.5,-322"/>
<text text-anchor="middle" x="417" y="-301.2" font-family="Courier,monospace" font-size="11.00">varGetter</text>
</g>
<!-- \\varGetter&#45;&gt;\\sanitation -->
<g id="edge8" class="edge"><title>\\varGetter&#45;&gt;\\sanitation</title>
<path fill="none" stroke="black" d="M378.116,-304C350.504,-304 312.776,-304 282.44,-304"/>
<polygon fill="none" stroke="black" points="282.047,-300.5 272.047,-304 282.047,-307.5 282.047,-300.5"/>
</g>
<!-- \\lock -->
<g id="node13" class="node"><title>\\lock</title>
<polygon fill="none" stroke="black" points="444,-214 390,-214 390,-178 444,-178 444,-214"/>
<text text-anchor="middle" x="417" y="-193.2" font-family="Courier,monospace" font-size="11.00">lock</text>
</g>
<!-- \\inventory -->
<g id="node14" class="node"><title>\\inventory</title>
<polygon fill="none" stroke="black" points="455.5,-160 378.5,-160 378.5,-124 455.5,-124 455.5,-160"/>
<text text-anchor="middle" x="417" y="-139.2" font-family="Courier,monospace" font-size="11.00">inventory</text>
</g>
<!-- \\inventory&#45;&gt;\\directoryIndex -->
<g id="edge9" class="edge"><title>\\inventory&#45;&gt;\\directoryIndex</title>
<path fill="none" stroke="black" d="M378.279,-158.168C371.4,-161.505 364.384,-165.177 358,-169 323.683,-189.551 320.103,-202.095 286,-223 283.818,-224.338 281.56,-225.662 279.26,-226.965"/>
<polygon fill="none" stroke="black" points="277.367,-224.01 270.25,-231.858 280.708,-230.161 277.367,-224.01"/>
</g>
<!-- \\url -->
<g id="node15" class="node"><title>\\url</title>
<polygon fill="none" stroke="black" points="257,-214 203,-214 203,-178 257,-178 257,-214"/>
<text text-anchor="middle" x="230" y="-193.2" font-family="Courier,monospace" font-size="11.00">url</text>
</g>
<!-- \\url&#45;&gt;\\dataMonger -->
<g id="edge10" class="edge"><title>\\url&#45;&gt;\\dataMonger</title>
<path fill="none" stroke="black" d="M202.799,-206.179C193.226,-210.569 182.636,-216.257 174,-223 133.902,-254.31 97.9133,-301.71 77.5384,-331.213"/>
<polygon fill="none" stroke="black" points="74.4576,-329.519 71.7291,-339.756 80.2462,-333.455 74.4576,-329.519"/>
</g>
<!-- \\urlset -->
<g id="node16" class="node"><title>\\urlset</title>
<polygon fill="none" stroke="black" points="445.5,-106 388.5,-106 388.5,-70 445.5,-70 445.5,-106"/>
<text text-anchor="middle" x="417" y="-85.2" font-family="Courier,monospace" font-size="11.00">urlset</text>
</g>
<!-- \\config -->
<g id="node18" class="node"><title>\\config</title>
<polygon fill="none" stroke="black" points="445.5,-52 388.5,-52 388.5,-16 445.5,-16 445.5,-52"/>
<text text-anchor="middle" x="417" y="-31.2" font-family="Courier,monospace" font-size="11.00">config</text>
</g>
</g>
</svg>
