<?xml version="1.0" encoding="UTF-8" standalone="no"?>
<!DOCTYPE svg PUBLIC "-//W3C//DTD SVG 1.1//EN"
 "http://www.w3.org/Graphics/SVG/1.1/DTD/svg11.dtd">
<!-- Generated by graphviz version 2.30.1 (20130303.0813)
 -->
<!-- Title: G Pages: 1 -->
<svg width="282pt" height="474pt"
 viewBox="0.00 0.00 282.00 474.00" xmlns="http://www.w3.org/2000/svg" xmlns:xlink="http://www.w3.org/1999/xlink">
<g id="graph0" class="graph" transform="scale(1 1) rotate(0) translate(4 470)">
<title>G</title>
<polygon fill="white" stroke="white" points="-4,5 -4,-470 279,-470 279,5 -4,5"/>
<g id="clust1" class="cluster"><title>cluster_global</title>
<path fill="none" stroke="gray" d="M20,-8C20,-8 254,-8 254,-8 260,-8 266,-14 266,-20 266,-20 266,-446 266,-446 266,-452 260,-458 254,-458 254,-458 20,-458 20,-458 14,-458 8,-452 8,-446 8,-446 8,-20 8,-20 8,-14 14,-8 20,-8"/>
<text text-anchor="middle" x="137" y="-445.2" font-family="Times,serif" font-size="11.00" fill="gray">global</text>
</g>
<!-- \\atom_feed -->
<g id="node1" class="node"><title>\\atom_feed</title>
<g id="a_node1"><a xlink:href="core_atom.html" xlink:title="atom_feed" target="_parent">
<polygon fill="none" stroke="black" points="247.5,-430 170.5,-430 170.5,-394 247.5,-394 247.5,-430"/>
<text text-anchor="middle" x="209" y="-409.2" font-family="Courier,monospace" font-size="11.00">atom_feed</text>
</a>
</g>
</g>
<!-- \\postObj -->
<g id="node2" class="node"><title>\\postObj</title>
<g id="a_node2"><a xlink:href="core_blog.html" xlink:title="postObj" target="_parent">
<polygon fill="none" stroke="black" points="241,-376 177,-376 177,-340 241,-340 241,-376"/>
<text text-anchor="middle" x="209" y="-355.2" font-family="Courier,monospace" font-size="11.00">postObj</text>
</a>
</g>
</g>
<!-- \\config -->
<g id="node3" class="node"><title>\\config</title>
<g id="a_node3"><a xlink:href="core_config.html" xlink:title="config" target="_parent">
<polygon fill="none" stroke="black" points="237.5,-322 180.5,-322 180.5,-286 237.5,-286 237.5,-322"/>
<text text-anchor="middle" x="209" y="-301.2" font-family="Courier,monospace" font-size="11.00">config</text>
</a>
</g>
</g>
<!-- \\redirect -->
<g id="node4" class="node"><title>\\redirect</title>
<g id="a_node4"><a xlink:href="core_redirect.html" xlink:title="redirect" target="_parent">
<polygon fill="none" stroke="black" points="87.5,-268 16.5,-268 16.5,-232 87.5,-232 87.5,-268"/>
<text text-anchor="middle" x="52" y="-247.2" font-family="Courier,monospace" font-size="11.00">redirect</text>
</a>
</g>
</g>
<!-- \\condRedirect -->
<g id="node5" class="node"><title>\\condRedirect</title>
<g id="a_node5"><a xlink:href="core_redirect.html" xlink:title="condRedirect" target="_parent">
<polygon fill="none" stroke="black" points="258,-268 160,-268 160,-232 258,-232 258,-268"/>
<text text-anchor="middle" x="209" y="-247.2" font-family="Courier,monospace" font-size="11.00">condRedirect</text>
</a>
</g>
</g>
<!-- \\condRedirect&#45;&gt;\\redirect -->
<g id="edge1" class="edge"><title>\\condRedirect&#45;&gt;\\redirect</title>
<path fill="none" stroke="black" d="M159.807,-250C140.07,-250 117.36,-250 97.9693,-250"/>
<polygon fill="none" stroke="black" points="97.8726,-246.5 87.8726,-250 97.8725,-253.5 97.8726,-246.5"/>
</g>
<!-- \\urlset -->
<g id="node6" class="node"><title>\\urlset</title>
<g id="a_node6"><a xlink:href="core_sitemap.html" xlink:title="urlset" target="_parent">
<polygon fill="none" stroke="black" points="237.5,-214 180.5,-214 180.5,-178 237.5,-178 237.5,-214"/>
<text text-anchor="middle" x="209" y="-193.2" font-family="Courier,monospace" font-size="11.00">urlset</text>
</a>
</g>
</g>
<!-- \\url -->
<g id="node7" class="node"><title>\\url</title>
<g id="a_node7"><a xlink:href="core_sitemap.html" xlink:title="url" target="_parent">
<polygon fill="none" stroke="black" points="236,-160 182,-160 182,-124 236,-124 236,-160"/>
<text text-anchor="middle" x="209" y="-139.2" font-family="Courier,monospace" font-size="11.00">url</text>
</a>
</g>
</g>
<!-- \\session -->
<g id="node8" class="node"><title>\\session</title>
<g id="a_node8"><a xlink:href="core_web.html" xlink:title="session" target="_parent">
<polygon fill="none" stroke="black" points="241,-106 177,-106 177,-70 241,-70 241,-106"/>
<text text-anchor="middle" x="209" y="-85.2" font-family="Courier,monospace" font-size="11.00">session</text>
</a>
</g>
</g>
<!-- \\sanitation -->
<g id="node9" class="node"><title>\\sanitation</title>
<g id="a_node9"><a xlink:href="core_web.html" xlink:title="sanitation" target="_parent">
<polygon fill="none" stroke="black" points="251,-52 167,-52 167,-16 251,-16 251,-52"/>
<text text-anchor="middle" x="209" y="-31.2" font-family="Courier,monospace" font-size="11.00">sanitation</text>
</a>
</g>
</g>
</g>
</svg>
