<?xml version="1.0" encoding="UTF-8" standalone="no"?>
<!DOCTYPE svg PUBLIC "-//W3C//DTD SVG 1.1//EN"
 "http://www.w3.org/Graphics/SVG/1.1/DTD/svg11.dtd">
<!-- Generated by graphviz version 2.32.0 (20130912.2142)
 -->
<!-- Title: G Pages: 1 -->
<svg width="500pt" height="690pt"
 viewBox="0.00 0.00 500.00 690.00" xmlns="http://www.w3.org/2000/svg" xmlns:xlink="http://www.w3.org/1999/xlink">
<g id="graph1" class="graph" transform="scale(1 1) rotate(0) translate(4 686)">
<title>G</title>
<polygon fill="white" stroke="white" points="-4,5 -4,-686 497,-686 497,5 -4,5"/>
<g id="clust2" class="cluster"><title>cluster_Global</title>
<path fill="none" stroke="gray" d="M20,-8C20,-8 472,-8 472,-8 478,-8 484,-14 484,-20 484,-20 484,-662 484,-662 484,-668 478,-674 472,-674 472,-674 20,-674 20,-674 14,-674 8,-668 8,-662 8,-662 8,-20 8,-20 8,-14 14,-8 20,-8"/>
<text text-anchor="middle" x="246" y="-661.2" font-family="Times,serif" font-size="11.00" fill="gray">\</text>
</g>
<!-- \\condRedirect -->
<g id="node2" class="node"><title>\\condRedirect</title>
<polygon fill="none" stroke="black" points="466,-646 368,-646 368,-610 466,-610 466,-646"/>
<text text-anchor="middle" x="417" y="-625.2" font-family="Courier,monospace" font-size="11.00">condRedirect</text>
</g>
<!-- \\redirect -->
<g id="node9" class="node"><title>\\redirect</title>
<polygon fill="none" stroke="black" points="265.5,-646 194.5,-646 194.5,-610 265.5,-610 265.5,-646"/>
<text text-anchor="middle" x="230" y="-625.2" font-family="Courier,monospace" font-size="11.00">redirect</text>
</g>
<!-- \\condRedirect&#45;&gt;\\redirect -->
<g id="edge3" class="edge"><title>\\condRedirect&#45;&gt;\\redirect</title>
<path fill="none" stroke="black" d="M367.876,-628C339.492,-628 303.801,-628 275.982,-628"/>
<polygon fill="none" stroke="black" points="275.737,-624.5 265.737,-628 275.737,-631.5 275.737,-624.5"/>
</g>
<!-- \\sanitation -->
<g id="node3" class="node"><title>\\sanitation</title>
<polygon fill="none" stroke="black" points="272,-376 188,-376 188,-340 272,-340 272,-376"/>
<text text-anchor="middle" x="230" y="-355.2" font-family="Courier,monospace" font-size="11.00">sanitation</text>
</g>
<!-- \\stdClassArticle -->
<g id="node4" class="node"><title>\\stdClassArticle</title>
<polygon fill="none" stroke="black" points="476,-592 358,-592 358,-556 476,-556 476,-592"/>
<text text-anchor="middle" x="417" y="-571.2" font-family="Courier,monospace" font-size="11.00">stdClassArticle</text>
</g>
<!-- \\article -->
<g id="node12" class="node"><title>\\article</title>
<polygon fill="none" stroke="black" points="262,-538 198,-538 198,-502 262,-502 262,-538"/>
<text text-anchor="middle" x="230" y="-517.2" font-family="Courier,monospace" font-size="11.00">article</text>
</g>
<!-- \\stdClassArticle&#45;&gt;\\article -->
<g id="edge5" class="edge"><title>\\stdClassArticle&#45;&gt;\\article</title>
<path fill="none" stroke="black" d="M357.972,-557.062C330.002,-548.898 297.123,-539.301 271.832,-531.919"/>
<polygon fill="none" stroke="black" points="272.771,-528.547 262.191,-529.104 270.809,-535.266 272.771,-528.547"/>
</g>
<!-- \\mappedArticle -->
<g id="node5" class="node"><title>\\mappedArticle</title>
<polygon fill="none" stroke="black" points="469,-538 365,-538 365,-502 469,-502 469,-538"/>
<text text-anchor="middle" x="417" y="-517.2" font-family="Courier,monospace" font-size="11.00">mappedArticle</text>
</g>
<!-- \\mappedArticle&#45;&gt;\\article -->
<g id="edge7" class="edge"><title>\\mappedArticle&#45;&gt;\\article</title>
<path fill="none" stroke="black" d="M364.958,-520C335.749,-520 299.585,-520 272.198,-520"/>
<polygon fill="none" stroke="black" points="272.164,-516.5 262.164,-520 272.164,-523.5 272.164,-516.5"/>
</g>
<!-- \\directoryIndex -->
<g id="node6" class="node"><title>\\directoryIndex</title>
<polygon fill="none" stroke="black" points="285.5,-322 174.5,-322 174.5,-286 285.5,-286 285.5,-322"/>
<text text-anchor="middle" x="230" y="-301.2" font-family="Courier,monospace" font-size="11.00">directoryIndex</text>
</g>
<!-- \\jsonMaker -->
<g id="node7" class="node"><title>\\jsonMaker</title>
<polygon fill="none" stroke="black" points="455.5,-484 378.5,-484 378.5,-448 455.5,-448 455.5,-484"/>
<text text-anchor="middle" x="417" y="-463.2" font-family="Courier,monospace" font-size="11.00">jsonMaker</text>
</g>
<!-- \\session -->
<g id="node8" class="node"><title>\\session</title>
<polygon fill="none" stroke="black" points="262,-457 198,-457 198,-421 262,-421 262,-457"/>
<text text-anchor="middle" x="230" y="-436.2" font-family="Courier,monospace" font-size="11.00">session</text>
</g>
<!-- \\dataMonger -->
<g id="node19" class="node"><title>\\dataMonger</title>
<polygon fill="none" stroke="black" points="101.5,-457 16.5,-457 16.5,-421 101.5,-421 101.5,-457"/>
<text text-anchor="start" x="25" y="-442.7" font-family="Courier,monospace" font-size="11.00">«abstract»</text>
<text text-anchor="start" x="25" y="-431.7" font-family="Courier,monospace" font-size="11.00">dataMonger</text>
</g>
<!-- \\session&#45;&gt;\\dataMonger -->
<g id="edge9" class="edge"><title>\\session&#45;&gt;\\dataMonger</title>
<path fill="none" stroke="black" d="M197.608,-439C173.549,-439 139.83,-439 111.792,-439"/>
<polygon fill="none" stroke="black" points="111.747,-435.5 101.747,-439 111.747,-442.5 111.747,-435.5"/>
</g>
<!-- \\config -->
<g id="node10" class="node"><title>\\config</title>
<polygon fill="none" stroke="black" points="445.5,-430 388.5,-430 388.5,-394 445.5,-394 445.5,-430"/>
<text text-anchor="middle" x="417" y="-409.2" font-family="Courier,monospace" font-size="11.00">config</text>
</g>
<!-- \\feed -->
<g id="node11" class="node"><title>\\feed</title>
<polygon fill="none" stroke="black" points="444,-322 390,-322 390,-286 444,-286 444,-322"/>
<text text-anchor="middle" x="417" y="-301.2" font-family="Courier,monospace" font-size="11.00">feed</text>
</g>
<!-- \\feed&#45;&gt;\\directoryIndex -->
<g id="edge11" class="edge"><title>\\feed&#45;&gt;\\directoryIndex</title>
<path fill="none" stroke="black" d="M389.886,-304C365.531,-304 328.196,-304 295.837,-304"/>
<polygon fill="none" stroke="black" points="295.528,-300.5 285.528,-304 295.528,-307.5 295.528,-300.5"/>
</g>
<!-- \\article&#45;&gt;\\dataMonger -->
<g id="edge13" class="edge"><title>\\article&#45;&gt;\\dataMonger</title>
<path fill="none" stroke="black" d="M197.608,-504.954C172.113,-492.735 135.769,-475.315 106.834,-461.447"/>
<polygon fill="none" stroke="black" points="108.254,-458.246 97.7231,-457.08 105.228,-464.559 108.254,-458.246"/>
</g>
<!-- \\varGetter -->
<g id="node13" class="node"><title>\\varGetter</title>
<polygon fill="none" stroke="black" points="455.5,-376 378.5,-376 378.5,-340 455.5,-340 455.5,-376"/>
<text text-anchor="middle" x="417" y="-355.2" font-family="Courier,monospace" font-size="11.00">varGetter</text>
</g>
<!-- \\varGetter&#45;&gt;\\sanitation -->
<g id="edge15" class="edge"><title>\\varGetter&#45;&gt;\\sanitation</title>
<path fill="none" stroke="black" d="M378.116,-358C350.504,-358 312.776,-358 282.44,-358"/>
<polygon fill="none" stroke="black" points="282.047,-354.5 272.047,-358 282.047,-361.5 282.047,-354.5"/>
</g>
<!-- \\lock -->
<g id="node14" class="node"><title>\\lock</title>
<polygon fill="none" stroke="black" points="444,-268 390,-268 390,-232 444,-232 444,-268"/>
<text text-anchor="middle" x="417" y="-247.2" font-family="Courier,monospace" font-size="11.00">lock</text>
</g>
<!-- \\inventory -->
<g id="node15" class="node"><title>\\inventory</title>
<polygon fill="none" stroke="black" points="455.5,-214 378.5,-214 378.5,-178 455.5,-178 455.5,-214"/>
<text text-anchor="middle" x="417" y="-193.2" font-family="Courier,monospace" font-size="11.00">inventory</text>
</g>
<!-- \\inventory&#45;&gt;\\directoryIndex -->
<g id="edge17" class="edge"><title>\\inventory&#45;&gt;\\directoryIndex</title>
<path fill="none" stroke="black" d="M378.279,-212.168C371.4,-215.505 364.384,-219.177 358,-223 323.683,-243.551 320.103,-256.095 286,-277 283.818,-278.338 281.56,-279.662 279.26,-280.965"/>
<polygon fill="none" stroke="black" points="277.367,-278.01 270.25,-285.858 280.708,-284.161 277.367,-278.01"/>
</g>
<!-- \\urlHandler -->
<g id="node16" class="node"><title>\\urlHandler</title>
<polygon fill="none" stroke="black" points="459,-160 375,-160 375,-124 459,-124 459,-160"/>
<text text-anchor="middle" x="417" y="-139.2" font-family="Courier,monospace" font-size="11.00">urlHandler</text>
</g>
<!-- \\url -->
<g id="node17" class="node"><title>\\url</title>
<polygon fill="none" stroke="black" points="257,-268 203,-268 203,-232 257,-232 257,-268"/>
<text text-anchor="middle" x="230" y="-247.2" font-family="Courier,monospace" font-size="11.00">url</text>
</g>
<!-- \\url&#45;&gt;\\dataMonger -->
<g id="edge19" class="edge"><title>\\url&#45;&gt;\\dataMonger</title>
<path fill="none" stroke="black" d="M202.752,-259.653C193.066,-264.011 182.411,-269.814 174,-277 128.468,-315.897 92.1336,-376.83 73.5505,-411.826"/>
<polygon fill="none" stroke="black" points="70.3036,-410.483 68.7869,-420.969 76.5116,-413.717 70.3036,-410.483"/>
</g>
<!-- \\urlset -->
<g id="node18" class="node"><title>\\urlset</title>
<polygon fill="none" stroke="black" points="445.5,-106 388.5,-106 388.5,-70 445.5,-70 445.5,-106"/>
<text text-anchor="middle" x="417" y="-85.2" font-family="Courier,monospace" font-size="11.00">urlset</text>
</g>
<!-- \\Extension -->
<g id="node20" class="node"><title>\\Extension</title>
<polygon fill="none" stroke="black" points="455.5,-52 378.5,-52 378.5,-16 455.5,-16 455.5,-52"/>
<text text-anchor="middle" x="417" y="-31.2" font-family="Courier,monospace" font-size="11.00">Extension</text>
</g>
</g>
</svg>
