<?xml version="1.0" encoding="UTF-8" standalone="no"?>
<!DOCTYPE svg PUBLIC "-//W3C//DTD SVG 1.1//EN"
 "http://www.w3.org/Graphics/SVG/1.1/DTD/svg11.dtd">
<!-- Generated by graphviz version 2.30.1 (20130303.0813)
 -->
<!-- Title: G Pages: 1 -->
<svg width="294pt" height="528pt"
 viewBox="0.00 0.00 294.00 528.00" xmlns="http://www.w3.org/2000/svg" xmlns:xlink="http://www.w3.org/1999/xlink">
<g id="graph0" class="graph" transform="scale(1 1) rotate(0) translate(4 524)">
<title>G</title>
<polygon fill="white" stroke="white" points="-4,5 -4,-524 291,-524 291,5 -4,5"/>
<g id="clust1" class="cluster"><title>cluster_global</title>
<path fill="none" stroke="gray" d="M20,-8C20,-8 266,-8 266,-8 272,-8 278,-14 278,-20 278,-20 278,-500 278,-500 278,-506 272,-512 266,-512 266,-512 20,-512 20,-512 14,-512 8,-506 8,-500 8,-500 8,-20 8,-20 8,-14 14,-8 20,-8"/>
<text text-anchor="middle" x="143" y="-499.2" font-family="Times,serif" font-size="11.00" fill="gray">global</text>
</g>
<!-- \\atom_feed -->
<g id="node1" class="node"><title>\\atom_feed</title>
<g id="a_node1"><a xlink:href="core_atom.html" xlink:title="atom_feed" target="_parent">
<polygon fill="none" stroke="black" points="259.5,-484 182.5,-484 182.5,-448 259.5,-448 259.5,-484"/>
<text text-anchor="middle" x="221" y="-463.2" font-family="Courier,monospace" font-size="11.00">atom_feed</text>
</a>
</g>
</g>
<!-- \\postObj -->
<g id="node2" class="node"><title>\\postObj</title>
<g id="a_node2"><a xlink:href="core_blog.html" xlink:title="postObj" target="_parent">
<polygon fill="none" stroke="black" points="253,-430 189,-430 189,-394 253,-394 253,-430"/>
<text text-anchor="middle" x="221" y="-409.2" font-family="Courier,monospace" font-size="11.00">postObj</text>
</a>
</g>
</g>
<!-- \\config -->
<g id="node3" class="node"><title>\\config</title>
<g id="a_node3"><a xlink:href="core_config.html" xlink:title="config" target="_parent">
<polygon fill="none" stroke="black" points="249.5,-376 192.5,-376 192.5,-340 249.5,-340 249.5,-376"/>
<text text-anchor="middle" x="221" y="-355.2" font-family="Courier,monospace" font-size="11.00">config</text>
</a>
</g>
</g>
<!-- \\jsonMaker -->
<g id="node4" class="node"><title>\\jsonMaker</title>
<g id="a_node4"><a xlink:href="core_json.html" xlink:title="jsonMaker" target="_parent">
<polygon fill="none" stroke="black" points="259.5,-322 182.5,-322 182.5,-286 259.5,-286 259.5,-322"/>
<text text-anchor="middle" x="221" y="-301.2" font-family="Courier,monospace" font-size="11.00">jsonMaker</text>
</a>
</g>
</g>
<!-- \\redirect -->
<g id="node5" class="node"><title>\\redirect</title>
<g id="a_node5"><a xlink:href="core_redirect.html" xlink:title="redirect" target="_parent">
<polygon fill="none" stroke="black" points="93.5,-268 22.5,-268 22.5,-232 93.5,-232 93.5,-268"/>
<text text-anchor="middle" x="58" y="-247.2" font-family="Courier,monospace" font-size="11.00">redirect</text>
</a>
</g>
</g>
<!-- \\condRedirect -->
<g id="node6" class="node"><title>\\condRedirect</title>
<g id="a_node6"><a xlink:href="core_redirect.html" xlink:title="condRedirect" target="_parent">
<polygon fill="none" stroke="black" points="270,-268 172,-268 172,-232 270,-232 270,-268"/>
<text text-anchor="middle" x="221" y="-247.2" font-family="Courier,monospace" font-size="11.00">condRedirect</text>
</a>
</g>
</g>
<!-- \\condRedirect&#45;&gt;\\redirect -->
<g id="edge1" class="edge"><title>\\condRedirect&#45;&gt;\\redirect</title>
<path fill="none" stroke="black" d="M171.695,-250C150.123,-250 124.859,-250 103.725,-250"/>
<polygon fill="none" stroke="black" points="103.716,-246.5 93.7163,-250 103.716,-253.5 103.716,-246.5"/>
</g>
<!-- \\urlset -->
<g id="node7" class="node"><title>\\urlset</title>
<g id="a_node7"><a xlink:href="core_sitemap.html" xlink:title="urlset" target="_parent">
<polygon fill="none" stroke="black" points="249.5,-214 192.5,-214 192.5,-178 249.5,-178 249.5,-214"/>
<text text-anchor="middle" x="221" y="-193.2" font-family="Courier,monospace" font-size="11.00">urlset</text>
</a>
</g>
</g>
<!-- \\url -->
<g id="node8" class="node"><title>\\url</title>
<g id="a_node8"><a xlink:href="core_sitemap.html" xlink:title="url" target="_parent">
<polygon fill="none" stroke="black" points="248,-160 194,-160 194,-124 248,-124 248,-160"/>
<text text-anchor="middle" x="221" y="-139.2" font-family="Courier,monospace" font-size="11.00">url</text>
</a>
</g>
</g>
<!-- \\session -->
<g id="node9" class="node"><title>\\session</title>
<g id="a_node9"><a xlink:href="core_web.html" xlink:title="session" target="_parent">
<polygon fill="none" stroke="black" points="253,-106 189,-106 189,-70 253,-70 253,-106"/>
<text text-anchor="middle" x="221" y="-85.2" font-family="Courier,monospace" font-size="11.00">session</text>
</a>
</g>
</g>
<!-- \\sanitation -->
<g id="node10" class="node"><title>\\sanitation</title>
<g id="a_node10"><a xlink:href="core_web.html" xlink:title="sanitation" target="_parent">
<polygon fill="none" stroke="black" points="100,-52 16,-52 16,-16 100,-16 100,-52"/>
<text text-anchor="middle" x="58" y="-31.2" font-family="Courier,monospace" font-size="11.00">sanitation</text>
</a>
</g>
</g>
<!-- \\varGetter -->
<g id="node11" class="node"><title>\\varGetter</title>
<g id="a_node11"><a xlink:href="core_web.html" xlink:title="varGetter" target="_parent">
<polygon fill="none" stroke="black" points="259.5,-52 182.5,-52 182.5,-16 259.5,-16 259.5,-52"/>
<text text-anchor="middle" x="221" y="-31.2" font-family="Courier,monospace" font-size="11.00">varGetter</text>
</a>
</g>
</g>
<!-- \\varGetter&#45;&gt;\\sanitation -->
<g id="edge2" class="edge"><title>\\varGetter&#45;&gt;\\sanitation</title>
<path fill="none" stroke="black" d="M182.253,-34C160.798,-34 133.635,-34 110.273,-34"/>
<polygon fill="none" stroke="black" points="110.181,-30.5001 100.181,-34 110.181,-37.5001 110.181,-30.5001"/>
</g>
</g>
</svg>
