<?xml version="1.0" encoding="UTF-8" standalone="no"?>
<!DOCTYPE svg PUBLIC "-//W3C//DTD SVG 1.1//EN"
 "http://www.w3.org/Graphics/SVG/1.1/DTD/svg11.dtd">
<!-- Generated by graphviz version 2.30.1 (20130303.0813)
 -->
<!-- Title: G Pages: 1 -->
<svg width="296pt" height="528pt"
 viewBox="0.00 0.00 296.00 528.00" xmlns="http://www.w3.org/2000/svg" xmlns:xlink="http://www.w3.org/1999/xlink">
<g id="graph0" class="graph" transform="scale(1 1) rotate(0) translate(4 524)">
<title>G</title>
<polygon fill="white" stroke="white" points="-4,5 -4,-524 293,-524 293,5 -4,5"/>
<g id="clust1" class="cluster"><title>cluster_global</title>
<path fill="none" stroke="gray" d="M20,-8C20,-8 268,-8 268,-8 274,-8 280,-14 280,-20 280,-20 280,-500 280,-500 280,-506 274,-512 268,-512 268,-512 20,-512 20,-512 14,-512 8,-506 8,-500 8,-500 8,-20 8,-20 8,-14 14,-8 20,-8"/>
<text text-anchor="middle" x="144" y="-499.2" font-family="Times,serif" font-size="11.00" fill="gray">global</text>
</g>
<!-- \\feed -->
<g id="node1" class="node"><title>\\feed</title>
<g id="a_node1"><a xlink:href="core_feed.html" xlink:title="feed" target="_parent">
<polygon fill="none" stroke="black" points="250,-430 196,-430 196,-394 250,-394 250,-430"/>
<text text-anchor="middle" x="223" y="-409.2" font-family="Courier,monospace" font-size="11.00">feed</text>
</a>
</g>
</g>
<!-- \\dataMonger -->
<g id="node6" class="node"><title>\\dataMonger</title>
<g id="a_node6"><a xlink:href="core_web.html" xlink:title="«abstract»&lt;br/&gt;dataMonger" target="_parent">
<polygon fill="none" stroke="black" points="101.5,-268 16.5,-268 16.5,-232 101.5,-232 101.5,-268"/>
<text text-anchor="start" x="25" y="-253.7" font-family="Courier,monospace" font-size="11.00">«abstract»</text>
<text text-anchor="start" x="25" y="-242.7" font-family="Courier,monospace" font-size="11.00">dataMonger</text>
</a>
</g>
</g>
<!-- \\feed&#45;&gt;\\dataMonger -->
<g id="edge1" class="edge"><title>\\feed&#45;&gt;\\dataMonger</title>
<path fill="none" stroke="black" d="M195.991,-399.582C188.533,-395.449 180.631,-390.484 174,-385 135.009,-352.756 98.9385,-306.021 78.2109,-276.853"/>
<polygon fill="none" stroke="black" points="80.8911,-274.579 72.2845,-268.4 75.1595,-278.598 80.8911,-274.579"/>
</g>
<!-- \\redirect -->
<g id="node2" class="node"><title>\\redirect</title>
<g id="a_node2"><a xlink:href="core_redirect.html" xlink:title="redirect" target="_parent">
<polygon fill="none" stroke="black" points="94.5,-484 23.5,-484 23.5,-448 94.5,-448 94.5,-484"/>
<text text-anchor="middle" x="59" y="-463.2" font-family="Courier,monospace" font-size="11.00">redirect</text>
</a>
</g>
</g>
<!-- \\condRedirect -->
<g id="node3" class="node"><title>\\condRedirect</title>
<g id="a_node3"><a xlink:href="core_redirect.html" xlink:title="condRedirect" target="_parent">
<polygon fill="none" stroke="black" points="272,-484 174,-484 174,-448 272,-448 272,-484"/>
<text text-anchor="middle" x="223" y="-463.2" font-family="Courier,monospace" font-size="11.00">condRedirect</text>
</a>
</g>
</g>
<!-- \\condRedirect&#45;&gt;\\redirect -->
<g id="edge2" class="edge"><title>\\condRedirect&#45;&gt;\\redirect</title>
<path fill="none" stroke="black" d="M173.833,-466C151.952,-466 126.222,-466 104.765,-466"/>
<polygon fill="none" stroke="black" points="104.611,-462.5 94.611,-466 104.611,-469.5 104.611,-462.5"/>
</g>
<!-- \\urlset -->
<g id="node4" class="node"><title>\\urlset</title>
<g id="a_node4"><a xlink:href="core_sitemap.html" xlink:title="urlset" target="_parent">
<polygon fill="none" stroke="black" points="251.5,-376 194.5,-376 194.5,-340 251.5,-340 251.5,-376"/>
<text text-anchor="middle" x="223" y="-355.2" font-family="Courier,monospace" font-size="11.00">urlset</text>
</a>
</g>
</g>
<!-- \\url -->
<g id="node5" class="node"><title>\\url</title>
<g id="a_node5"><a xlink:href="core_sitemap.html" xlink:title="url" target="_parent">
<polygon fill="none" stroke="black" points="250,-322 196,-322 196,-286 250,-286 250,-322"/>
<text text-anchor="middle" x="223" y="-301.2" font-family="Courier,monospace" font-size="11.00">url</text>
</a>
</g>
</g>
<!-- \\session -->
<g id="node7" class="node"><title>\\session</title>
<g id="a_node7"><a xlink:href="core_web.html" xlink:title="session" target="_parent">
<polygon fill="none" stroke="black" points="255,-268 191,-268 191,-232 255,-232 255,-268"/>
<text text-anchor="middle" x="223" y="-247.2" font-family="Courier,monospace" font-size="11.00">session</text>
</a>
</g>
</g>
<!-- \\session&#45;&gt;\\dataMonger -->
<g id="edge3" class="edge"><title>\\session&#45;&gt;\\dataMonger</title>
<path fill="none" stroke="black" d="M190.765,-250C168.362,-250 137.667,-250 111.646,-250"/>
<polygon fill="none" stroke="black" points="111.561,-246.5 101.561,-250 111.561,-253.5 111.561,-246.5"/>
</g>
<!-- \\sanitation -->
<g id="node8" class="node"><title>\\sanitation</title>
<g id="a_node8"><a xlink:href="core_web.html" xlink:title="sanitation" target="_parent">
<polygon fill="none" stroke="black" points="101,-52 17,-52 17,-16 101,-16 101,-52"/>
<text text-anchor="middle" x="59" y="-31.2" font-family="Courier,monospace" font-size="11.00">sanitation</text>
</a>
</g>
</g>
<!-- \\varGetter -->
<g id="node9" class="node"><title>\\varGetter</title>
<g id="a_node9"><a xlink:href="core_web.html" xlink:title="varGetter" target="_parent">
<polygon fill="none" stroke="black" points="261.5,-52 184.5,-52 184.5,-16 261.5,-16 261.5,-52"/>
<text text-anchor="middle" x="223" y="-31.2" font-family="Courier,monospace" font-size="11.00">varGetter</text>
</a>
</g>
</g>
<!-- \\varGetter&#45;&gt;\\sanitation -->
<g id="edge4" class="edge"><title>\\varGetter&#45;&gt;\\sanitation</title>
<path fill="none" stroke="black" d="M184.427,-34C162.687,-34 135.023,-34 111.302,-34"/>
<polygon fill="none" stroke="black" points="111.063,-30.5001 101.063,-34 111.063,-37.5001 111.063,-30.5001"/>
</g>
<!-- \\config -->
<g id="node10" class="node"><title>\\config</title>
<g id="a_node10"><a xlink:href="core_config.html" xlink:title="config" target="_parent">
<polygon fill="none" stroke="black" points="251.5,-160 194.5,-160 194.5,-124 251.5,-124 251.5,-160"/>
<text text-anchor="middle" x="223" y="-139.2" font-family="Courier,monospace" font-size="11.00">config</text>
</a>
</g>
</g>
<!-- \\jsonMaker -->
<g id="node11" class="node"><title>\\jsonMaker</title>
<g id="a_node11"><a xlink:href="core_json.html" xlink:title="jsonMaker" target="_parent">
<polygon fill="none" stroke="black" points="261.5,-106 184.5,-106 184.5,-70 261.5,-70 261.5,-106"/>
<text text-anchor="middle" x="223" y="-85.2" font-family="Courier,monospace" font-size="11.00">jsonMaker</text>
</a>
</g>
</g>
<!-- \\postObj -->
<g id="node12" class="node"><title>\\postObj</title>
<g id="a_node12"><a xlink:href="core_blog.html" xlink:title="postObj" target="_parent">
<polygon fill="none" stroke="black" points="255,-214 191,-214 191,-178 255,-178 255,-214"/>
<text text-anchor="middle" x="223" y="-193.2" font-family="Courier,monospace" font-size="11.00">postObj</text>
</a>
</g>
</g>
<!-- \\postObj&#45;&gt;\\dataMonger -->
<g id="edge5" class="edge"><title>\\postObj&#45;&gt;\\dataMonger</title>
<path fill="none" stroke="black" d="M190.765,-206.412C168.263,-213.912 137.395,-224.202 111.301,-232.9"/>
<polygon fill="none" stroke="black" points="109.941,-229.664 101.561,-236.146 112.155,-236.304 109.941,-229.664"/>
</g>
</g>
</svg>
