<?xml version="1.0" encoding="UTF-8" standalone="no"?>
<!DOCTYPE svg PUBLIC "-//W3C//DTD SVG 1.1//EN"
 "http://www.w3.org/Graphics/SVG/1.1/DTD/svg11.dtd">
<!-- Generated by graphviz version 2.30.1 (20130427.1945)
 -->
<!-- Title: G Pages: 1 -->
<svg width="296pt" height="636pt"
 viewBox="0.00 0.00 296.00 636.00" xmlns="http://www.w3.org/2000/svg" xmlns:xlink="http://www.w3.org/1999/xlink">
<g id="graph0" class="graph" transform="scale(1 1) rotate(0) translate(4 632)">
<title>G</title>
<polygon fill="white" stroke="white" points="-4,5 -4,-632 293,-632 293,5 -4,5"/>
<g id="clust1" class="cluster"><title>cluster_global</title>
<path fill="none" stroke="gray" d="M20,-8C20,-8 268,-8 268,-8 274,-8 280,-14 280,-20 280,-20 280,-608 280,-608 280,-614 274,-620 268,-620 268,-620 20,-620 20,-620 14,-620 8,-614 8,-608 8,-608 8,-20 8,-20 8,-14 14,-8 20,-8"/>
<text text-anchor="middle" x="144" y="-607.2" font-family="Times,serif" font-size="11.00" fill="gray">global</text>
</g>
<!-- \\url -->
<g id="node1" class="node"><title>\\url</title>
<g id="a_node1"><a xlink:href="class_url.html" xlink:title="url" target="_parent">
<polygon fill="none" stroke="black" points="250,-592 196,-592 196,-556 250,-556 250,-592"/>
<text text-anchor="middle" x="223" y="-571.2" font-family="Courier,monospace" font-size="11.00">url</text>
</a>
</g>
</g>
<!-- \\dataMonger -->
<g id="node8" class="node"><title>\\dataMonger</title>
<g id="a_node8"><a xlink:href="class_dataMonger.html" xlink:title="«abstract»&lt;br/&gt;dataMonger" target="_parent">
<polygon fill="none" stroke="black" points="101.5,-484 16.5,-484 16.5,-448 101.5,-448 101.5,-484"/>
<text text-anchor="start" x="25" y="-469.7" font-family="Courier,monospace" font-size="11.00">«abstract»</text>
<text text-anchor="start" x="25" y="-458.7" font-family="Courier,monospace" font-size="11.00">dataMonger</text>
</a>
</g>
</g>
<!-- \\url&#45;&gt;\\dataMonger -->
<g id="edge1" class="edge"><title>\\url&#45;&gt;\\dataMonger</title>
<path fill="none" stroke="black" d="M195.798,-559.919C188.64,-555.895 180.944,-551.403 174,-547 145.636,-529.016 114.64,-506.818 92.1377,-490.21"/>
<polygon fill="none" stroke="black" points="94.0695,-487.285 83.9525,-484.139 89.8994,-492.907 94.0695,-487.285"/>
</g>
<!-- \\sanitation -->
<g id="node2" class="node"><title>\\sanitation</title>
<g id="a_node2"><a xlink:href="class_sanitation.html" xlink:title="sanitation" target="_parent">
<polygon fill="none" stroke="black" points="101,-160 17,-160 17,-124 101,-124 101,-160"/>
<text text-anchor="middle" x="59" y="-139.2" font-family="Courier,monospace" font-size="11.00">sanitation</text>
</a>
</g>
</g>
<!-- \\redirect -->
<g id="node3" class="node"><title>\\redirect</title>
<g id="a_node3"><a xlink:href="class_redirect.html" xlink:title="redirect" target="_parent">
<polygon fill="none" stroke="black" points="94.5,-214 23.5,-214 23.5,-178 94.5,-178 94.5,-214"/>
<text text-anchor="middle" x="59" y="-193.2" font-family="Courier,monospace" font-size="11.00">redirect</text>
</a>
</g>
</g>
<!-- \\content -->
<g id="node4" class="node"><title>\\content</title>
<g id="a_node4"><a xlink:href="class_content.html" xlink:title="content" target="_parent">
<polygon fill="none" stroke="black" points="255,-538 191,-538 191,-502 255,-502 255,-538"/>
<text text-anchor="middle" x="223" y="-517.2" font-family="Courier,monospace" font-size="11.00">content</text>
</a>
</g>
</g>
<!-- \\content&#45;&gt;\\dataMonger -->
<g id="edge2" class="edge"><title>\\content&#45;&gt;\\dataMonger</title>
<path fill="none" stroke="black" d="M190.765,-509.588C168.263,-502.088 137.395,-491.798 111.301,-483.1"/>
<polygon fill="none" stroke="black" points="112.155,-479.696 101.561,-479.854 109.941,-486.336 112.155,-479.696"/>
</g>
<!-- \\session -->
<g id="node5" class="node"><title>\\session</title>
<g id="a_node5"><a xlink:href="class_session.html" xlink:title="session" target="_parent">
<polygon fill="none" stroke="black" points="255,-484 191,-484 191,-448 255,-448 255,-484"/>
<text text-anchor="middle" x="223" y="-463.2" font-family="Courier,monospace" font-size="11.00">session</text>
</a>
</g>
</g>
<!-- \\session&#45;&gt;\\dataMonger -->
<g id="edge3" class="edge"><title>\\session&#45;&gt;\\dataMonger</title>
<path fill="none" stroke="black" d="M190.765,-466C168.362,-466 137.667,-466 111.646,-466"/>
<polygon fill="none" stroke="black" points="111.561,-462.5 101.561,-466 111.561,-469.5 111.561,-462.5"/>
</g>
<!-- \\jsonMaker -->
<g id="node6" class="node"><title>\\jsonMaker</title>
<g id="a_node6"><a xlink:href="core_json.html" xlink:title="jsonMaker" target="_parent">
<polygon fill="none" stroke="black" points="261.5,-430 184.5,-430 184.5,-394 261.5,-394 261.5,-430"/>
<text text-anchor="middle" x="223" y="-409.2" font-family="Courier,monospace" font-size="11.00">jsonMaker</text>
</a>
</g>
</g>
<!-- \\feed -->
<g id="node7" class="node"><title>\\feed</title>
<g id="a_node7"><a xlink:href="class_feed.html" xlink:title="feed" target="_parent">
<polygon fill="none" stroke="black" points="250,-376 196,-376 196,-340 250,-340 250,-376"/>
<text text-anchor="middle" x="223" y="-355.2" font-family="Courier,monospace" font-size="11.00">feed</text>
</a>
</g>
</g>
<!-- \\feed&#45;&gt;\\dataMonger -->
<g id="edge4" class="edge"><title>\\feed&#45;&gt;\\dataMonger</title>
<path fill="none" stroke="black" d="M195.798,-372.081C188.64,-376.105 180.944,-380.597 174,-385 145.636,-402.984 114.64,-425.182 92.1377,-441.79"/>
<polygon fill="none" stroke="black" points="89.8994,-439.093 83.9525,-447.861 94.0695,-444.715 89.8994,-439.093"/>
</g>
<!-- \\article -->
<g id="node9" class="node"><title>\\article</title>
<g id="a_node9"><a xlink:href="class_article.html" xlink:title="article" target="_parent">
<polygon fill="none" stroke="black" points="255,-322 191,-322 191,-286 255,-286 255,-322"/>
<text text-anchor="middle" x="223" y="-301.2" font-family="Courier,monospace" font-size="11.00">article</text>
</a>
</g>
</g>
<!-- \\article&#45;&gt;\\dataMonger -->
<g id="edge5" class="edge"><title>\\article&#45;&gt;\\dataMonger</title>
<path fill="none" stroke="black" d="M190.972,-319.293C185.084,-322.783 179.158,-326.735 174,-331 135.009,-363.244 98.9385,-409.979 78.2109,-439.147"/>
<polygon fill="none" stroke="black" points="75.1595,-437.402 72.2845,-447.6 80.8911,-441.421 75.1595,-437.402"/>
</g>
<!-- \\inventory -->
<g id="node10" class="node"><title>\\inventory</title>
<g id="a_node10"><a xlink:href="class_inventory.html" xlink:title="inventory" target="_parent">
<polygon fill="none" stroke="black" points="261.5,-268 184.5,-268 184.5,-232 261.5,-232 261.5,-268"/>
<text text-anchor="middle" x="223" y="-247.2" font-family="Courier,monospace" font-size="11.00">inventory</text>
</a>
</g>
</g>
<!-- \\condRedirect -->
<g id="node11" class="node"><title>\\condRedirect</title>
<g id="a_node11"><a xlink:href="class_condRedirect.html" xlink:title="condRedirect" target="_parent">
<polygon fill="none" stroke="black" points="272,-214 174,-214 174,-178 272,-178 272,-214"/>
<text text-anchor="middle" x="223" y="-193.2" font-family="Courier,monospace" font-size="11.00">condRedirect</text>
</a>
</g>
</g>
<!-- \\condRedirect&#45;&gt;\\redirect -->
<g id="edge6" class="edge"><title>\\condRedirect&#45;&gt;\\redirect</title>
<path fill="none" stroke="black" d="M173.833,-196C151.952,-196 126.222,-196 104.765,-196"/>
<polygon fill="none" stroke="black" points="104.611,-192.5 94.611,-196 104.611,-199.5 104.611,-192.5"/>
</g>
<!-- \\varGetter -->
<g id="node12" class="node"><title>\\varGetter</title>
<g id="a_node12"><a xlink:href="class_varGetter.html" xlink:title="varGetter" target="_parent">
<polygon fill="none" stroke="black" points="261.5,-160 184.5,-160 184.5,-124 261.5,-124 261.5,-160"/>
<text text-anchor="middle" x="223" y="-139.2" font-family="Courier,monospace" font-size="11.00">varGetter</text>
</a>
</g>
</g>
<!-- \\varGetter&#45;&gt;\\sanitation -->
<g id="edge7" class="edge"><title>\\varGetter&#45;&gt;\\sanitation</title>
<path fill="none" stroke="black" d="M184.427,-142C162.687,-142 135.023,-142 111.302,-142"/>
<polygon fill="none" stroke="black" points="111.063,-138.5 101.063,-142 111.063,-145.5 111.063,-138.5"/>
</g>
<!-- \\urlset -->
<g id="node13" class="node"><title>\\urlset</title>
<g id="a_node13"><a xlink:href="class_urlset.html" xlink:title="urlset" target="_parent">
<polygon fill="none" stroke="black" points="251.5,-106 194.5,-106 194.5,-70 251.5,-70 251.5,-106"/>
<text text-anchor="middle" x="223" y="-85.2" font-family="Courier,monospace" font-size="11.00">urlset</text>
</a>
</g>
</g>
<!-- \\config -->
<g id="node14" class="node"><title>\\config</title>
<g id="a_node14"><a xlink:href="class_config.html" xlink:title="config" target="_parent">
<polygon fill="none" stroke="black" points="251.5,-52 194.5,-52 194.5,-16 251.5,-16 251.5,-52"/>
<text text-anchor="middle" x="223" y="-31.2" font-family="Courier,monospace" font-size="11.00">config</text>
</a>
</g>
</g>
</g>
</svg>
