<?xml version="1.0" encoding="UTF-8" standalone="no"?>
<!DOCTYPE svg PUBLIC "-//W3C//DTD SVG 1.1//EN"
 "http://www.w3.org/Graphics/SVG/1.1/DTD/svg11.dtd">
<!-- Generated by graphviz version 2.30.1 (20130303.0813)
 -->
<!-- Title: G Pages: 1 -->
<svg width="124pt" height="420pt"
 viewBox="0.00 0.00 124.00 420.00" xmlns="http://www.w3.org/2000/svg" xmlns:xlink="http://www.w3.org/1999/xlink">
<g id="graph0" class="graph" transform="scale(1 1) rotate(0) translate(4 416)">
<title>G</title>
<polygon fill="white" stroke="white" points="-4,5 -4,-416 121,-416 121,5 -4,5"/>
<g id="clust1" class="cluster"><title>cluster_global</title>
<path fill="none" stroke="gray" d="M20,-8C20,-8 96,-8 96,-8 102,-8 108,-14 108,-20 108,-20 108,-392 108,-392 108,-398 102,-404 96,-404 96,-404 20,-404 20,-404 14,-404 8,-398 8,-392 8,-392 8,-20 8,-20 8,-14 14,-8 20,-8"/>
<text text-anchor="middle" x="58" y="-391.2" font-family="Times,serif" font-size="11.00" fill="gray">global</text>
</g>
<!-- \\atom_feed -->
<g id="node1" class="node"><title>\\atom_feed</title>
<g id="a_node1"><a xlink:href="core_atom.html" xlink:title="atom_feed" target="_parent">
<polygon fill="none" stroke="black" points="96.5,-376 19.5,-376 19.5,-340 96.5,-340 96.5,-376"/>
<text text-anchor="middle" x="58" y="-355.2" font-family="Courier,monospace" font-size="11.00">atom_feed</text>
</a>
</g>
</g>
<!-- \\postObj -->
<g id="node2" class="node"><title>\\postObj</title>
<g id="a_node2"><a xlink:href="core_blog.html" xlink:title="postObj" target="_parent">
<polygon fill="none" stroke="black" points="90,-322 26,-322 26,-286 90,-286 90,-322"/>
<text text-anchor="middle" x="58" y="-301.2" font-family="Courier,monospace" font-size="11.00">postObj</text>
</a>
</g>
</g>
<!-- \\config -->
<g id="node3" class="node"><title>\\config</title>
<g id="a_node3"><a xlink:href="core_config.html" xlink:title="config" target="_parent">
<polygon fill="none" stroke="black" points="86.5,-268 29.5,-268 29.5,-232 86.5,-232 86.5,-268"/>
<text text-anchor="middle" x="58" y="-247.2" font-family="Courier,monospace" font-size="11.00">config</text>
</a>
</g>
</g>
<!-- \\urlset -->
<g id="node4" class="node"><title>\\urlset</title>
<g id="a_node4"><a xlink:href="core_sitemap.html" xlink:title="urlset" target="_parent">
<polygon fill="none" stroke="black" points="86.5,-214 29.5,-214 29.5,-178 86.5,-178 86.5,-214"/>
<text text-anchor="middle" x="58" y="-193.2" font-family="Courier,monospace" font-size="11.00">urlset</text>
</a>
</g>
</g>
<!-- \\url -->
<g id="node5" class="node"><title>\\url</title>
<g id="a_node5"><a xlink:href="core_sitemap.html" xlink:title="url" target="_parent">
<polygon fill="none" stroke="black" points="85,-160 31,-160 31,-124 85,-124 85,-160"/>
<text text-anchor="middle" x="58" y="-139.2" font-family="Courier,monospace" font-size="11.00">url</text>
</a>
</g>
</g>
<!-- \\session -->
<g id="node6" class="node"><title>\\session</title>
<g id="a_node6"><a xlink:href="core_web.html" xlink:title="session" target="_parent">
<polygon fill="none" stroke="black" points="90,-106 26,-106 26,-70 90,-70 90,-106"/>
<text text-anchor="middle" x="58" y="-85.2" font-family="Courier,monospace" font-size="11.00">session</text>
</a>
</g>
</g>
<!-- \\sanitation -->
<g id="node7" class="node"><title>\\sanitation</title>
<g id="a_node7"><a xlink:href="core_web.html" xlink:title="sanitation" target="_parent">
<polygon fill="none" stroke="black" points="100,-52 16,-52 16,-16 100,-16 100,-52"/>
<text text-anchor="middle" x="58" y="-31.2" font-family="Courier,monospace" font-size="11.00">sanitation</text>
</a>
</g>
</g>
</g>
</svg>
